<svg width="32" height="26" viewBox="0 0 32 26" fill="none" xmlns="http://www.w3.org/2000/svg">
<g id="Group 1010105676">
<g id="Vector">
<path d="M1.23653 23.198C0.618285 23.7634 0.632282 24.6698 1.26919 25.2207C1.90376 25.7716 2.92094 25.7591 3.53918 25.1916L15.932 13.8016L14.7819 12.8058L15.9367 13.8036C16.5549 13.234 16.5409 12.3256 15.9017 11.7747C15.883 11.7581 15.8644 11.7435 15.8457 11.729L3.53685 0.515647C2.91861 -0.0518782 1.90376 -0.0643512 1.26686 0.486544C0.632282 1.03744 0.618285 1.94174 1.23653 2.50926L12.5422 12.81L1.23653 23.198Z" fill="white"/>
<path d="M1.23653 23.198C0.618285 23.7634 0.632282 24.6698 1.26919 25.2207C1.90376 25.7716 2.92094 25.7591 3.53918 25.1916L15.932 13.8016L14.7819 12.8058L15.9367 13.8036C16.5549 13.234 16.5409 12.3256 15.9017 11.7747C15.883 11.7581 15.8644 11.7435 15.8457 11.729L3.53685 0.515647C2.91861 -0.0518782 1.90376 -0.0643512 1.26686 0.486544C0.632282 1.03744 0.618285 1.94174 1.23653 2.50926L12.5422 12.81L1.23653 23.198Z" stroke="white"/>
</g>
<g id="Vector_2">
<path d="M16.8454 23.198C16.2272 23.7634 16.2412 24.6698 16.8781 25.2207C17.5126 25.7716 18.5298 25.7591 19.1481 25.1916L31.5409 13.8016L30.3907 12.8058L31.5456 13.8036C32.1638 13.234 32.1498 12.3256 31.5106 11.7747C31.4919 11.7581 31.4732 11.7435 31.4546 11.729L19.1457 0.515647C18.5275 -0.0518782 17.5126 -0.0643512 16.8757 0.486544C16.2412 1.03744 16.2272 1.94174 16.8454 2.50926L28.1511 12.81L16.8454 23.198Z" fill="white"/>
<path d="M16.8454 23.198C16.2272 23.7634 16.2412 24.6698 16.8781 25.2207C17.5126 25.7716 18.5298 25.7591 19.1481 25.1916L31.5409 13.8016L30.3907 12.8058L31.5456 13.8036C32.1638 13.234 32.1498 12.3256 31.5106 11.7747C31.4919 11.7581 31.4732 11.7435 31.4546 11.729L19.1457 0.515647C18.5275 -0.0518782 17.5126 -0.0643512 16.8757 0.486544C16.2412 1.03744 16.2272 1.94174 16.8454 2.50926L28.1511 12.81L16.8454 23.198Z" stroke="white"/>
</g>
</g>
</svg>
