<svg width="68" height="20" viewBox="0 0 68 20" fill="none" xmlns="http://www.w3.org/2000/svg">
<g id="g14">
<g id="g20">
<path id="path22" d="M8.53427 17.7401H8.33759C6.985 17.7401 6.41941 17.4163 6.41941 16.0709V11.1625H7.72284C10.5019 11.1625 11.4612 12.5825 11.4612 14.526C11.4612 16.5939 10.3541 17.7401 8.53427 17.7401ZM6.41941 3.48824H7.25527C9.46877 3.48824 10.6986 4.43527 10.6986 6.35377C10.6986 8.54629 9.51794 9.51807 7.37835 9.51807H6.41941V3.48824ZM10.4524 10.2653C12.8135 9.96622 15.0028 8.72073 15.0028 6.20407C15.0028 3.28906 12.7893 1.81903 9.02626 1.81903H0V3.38865C1.64791 3.4635 2.04126 3.73753 2.04126 5.10797V16.0208C2.04126 17.3912 1.64791 17.6653 0 17.7401V19.3097H9.14902C13.5024 19.3097 15.8634 17.7401 15.8634 14.5758C15.8634 11.9098 13.6008 10.4648 10.4524 10.2653Z" fill="#333333"/>
</g>
<g id="g24">
<path id="path26" d="M22.1998 16.3699V0.348898H21.4373L16.6169 1.37047V2.2176L18.0678 3.56299V16.3699C18.0678 17.5161 17.6253 17.6404 16.4941 17.7898V19.3099H23.7738V17.7898C22.6671 17.6404 22.1998 17.5161 22.1998 16.3699Z" fill="#333333"/>
</g>
<g id="g28">
<path id="path30" d="M31.0058 16.3699V5.43169H30.2188L25.3985 6.70255V7.42503L26.8494 8.79548V16.3699C26.8494 17.5161 26.3574 17.6404 25.2754 17.7898V19.3099H32.5798V17.7898C31.4728 17.6404 31.0058 17.5161 31.0058 16.3699Z" fill="#333333"/>
</g>
<g id="g32">
<path id="path34" d="M28.8669 4.43515C30.2931 4.43515 31.1787 3.41358 31.1787 2.21757C31.1787 1.02157 30.2931 -9.53674e-07 28.8669 -9.53674e-07C27.4156 -9.53674e-07 26.5059 1.02157 26.5059 2.21757C26.5059 3.41358 27.4156 4.43515 28.8669 4.43515Z" fill="#333333"/>
</g>
<g id="g36">
<path id="path38" d="M46.9582 5.70581H41.7442V7.20058C42.9987 7.37502 43.4165 7.49966 43.4165 8.09782C43.4165 8.297 43.3677 8.47143 43.2195 8.8701L40.8585 14.3018L38.5717 8.8701C38.4239 8.49618 38.3747 8.297 38.3747 8.09782C38.3747 7.49966 38.7684 7.37502 40.0471 7.20058V5.70581H32.2754V7.20058C33.1855 7.52471 33.4066 7.6741 33.6772 8.19741L39.137 19.4344H40.3671L45.5805 8.19741C45.8023 7.64936 46.0728 7.52471 46.9582 7.20058V5.70581Z" fill="#333333"/>
</g>
<g id="g40">
<path id="path42" d="M53.2539 17.8896C51.6326 17.8896 50.6615 15.749 50.4867 12.8218C51.4294 12.6546 52.2652 12.4632 52.9934 12.2296C53.6924 12.0054 54.3776 11.715 55.0406 11.4341C55.1809 11.3746 55.323 11.3164 55.464 11.2572C55.5404 11.8547 55.5905 12.4839 55.5905 13.1556C55.5905 15.9213 54.7791 17.8896 53.2539 17.8896ZM52.8114 7.10107C53.9523 7.10107 54.7709 8.20595 55.2131 9.89927C53.6047 10.6572 52.3047 11.1047 51.0157 11.3367C50.8268 11.3439 50.6289 11.3496 50.4701 11.3396C50.5685 8.85296 51.3627 7.10107 52.8114 7.10107ZM66.8162 7.78692C65.5892 6.86306 64.1301 6.58183 62.2263 6.90127C60.8837 7.12707 59.6558 7.6579 58.7357 8.09509C58.715 8.10511 58.6746 8.12515 58.6242 8.15052C57.4745 6.50542 55.5952 5.4566 53.2047 5.4566C49.1958 5.4566 46.1953 8.29708 46.1953 12.7319C46.1953 16.619 48.8269 19.5591 52.8606 19.5591C56.8451 19.5591 59.8703 16.7186 59.8703 12.2587C59.8703 11.2149 59.6636 10.2481 59.3032 9.37909C60.2803 9.0155 61.0403 8.87708 61.7769 8.94597C62.9563 9.05621 63.484 9.55384 63.7252 10.7824C63.7749 11.0348 63.883 11.2963 64.0289 11.519C64.4761 12.2017 65.3546 12.5024 66.264 12.286C67.1722 12.0696 67.7485 11.5008 67.9307 10.6415C68.1716 9.50436 67.7867 8.51724 66.8162 7.78692Z" fill="#333333"/>
</g>
</g>
</svg>
