<svg width="2081" height="143" viewBox="0 0 2081 143" fill="none" xmlns="http://www.w3.org/2000/svg">
<path d="M91.7421 65.117V23.8517C100.054 27.0335 105.955 35.064 105.969 44.4829C105.955 53.9038 100.054 61.9296 91.7421 65.117ZM61.6704 44.4829C61.689 35.0696 67.5803 27.0437 75.8876 23.8526V65.1087C67.5803 61.9203 61.689 53.8991 61.6704 44.4829ZM83.8162 9.60547C64.52 9.61198 48.8836 25.2206 48.8789 44.4829C48.8836 63.7434 64.52 79.3493 83.8162 79.3549C103.119 79.3493 118.758 63.7434 118.761 44.4829C118.758 25.2206 103.119 9.61198 83.8162 9.60547Z" fill="black"/>
<path d="M3.68974 109.843C3.68974 106.24 1.80524 106.476 0 106.438V105.397C1.56466 105.473 3.16943 105.473 4.73782 105.473C6.42277 105.473 8.71196 105.397 11.6846 105.397C22.0806 105.397 27.7406 112.326 27.7406 119.422C27.7406 123.39 25.4141 133.366 11.2007 133.366C9.15487 133.366 7.26478 133.287 5.37935 133.287C3.57411 133.287 1.80524 133.325 0 133.366V132.324C2.40667 132.083 3.57412 132.003 3.68974 129.278V109.843ZM7.62471 128.638C7.62471 131.723 9.83557 132.083 11.8012 132.083C20.4749 132.083 23.3236 125.552 23.3236 119.581C23.3236 112.09 18.5056 106.681 10.7578 106.681C9.10919 106.681 8.35109 106.798 7.62471 106.841V128.638ZM29.1486 132.325H29.9105C31.0331 132.325 31.8369 132.325 31.8369 130.999V120.143C31.8369 118.381 31.2355 118.136 29.7482 117.34V116.697C31.6355 116.133 33.8855 115.376 34.044 115.256C34.3266 115.096 34.5662 115.053 34.7676 115.053C34.9662 115.053 35.0492 115.294 35.0492 115.617V130.999C35.0492 132.325 35.9323 132.325 37.0577 132.325H37.7384V133.367C36.3724 133.367 34.9662 133.287 33.5247 133.287C32.0784 133.287 30.6322 133.326 29.1486 133.367V132.325ZM33.4445 108.884C32.3983 108.884 31.477 107.922 31.477 106.88C31.477 105.877 32.4421 104.953 33.4445 104.953C34.4851 104.953 35.411 105.798 35.411 106.88C35.411 107.963 34.5261 108.884 33.4445 108.884ZM41.5531 120.382C41.5531 118.9 41.1093 118.501 39.2266 117.74V116.979C40.9508 116.418 42.5956 115.895 44.5249 115.053C44.6442 115.053 44.7617 115.135 44.7617 115.453V118.059C47.0537 116.418 49.0221 115.053 51.715 115.053C55.125 115.053 56.3289 117.538 56.3289 120.664V130.999C56.3289 132.325 57.2109 132.325 58.3364 132.325H59.0591V133.367C57.6511 133.367 56.2459 133.287 54.8043 133.287C53.3571 133.287 51.9109 133.326 50.4665 133.367V132.325H51.1882C52.3146 132.325 53.1137 132.325 53.1137 130.999V120.625C53.1137 118.338 51.715 117.219 49.4231 117.219C48.1391 117.219 46.0914 118.259 44.7617 119.141V130.999C44.7617 132.325 45.6503 132.325 46.7749 132.325H47.4966V133.367C46.0914 133.367 44.6843 133.287 43.239 133.287C41.7956 133.287 40.3475 133.326 38.904 133.367V132.325H39.6285C40.7521 132.325 41.5531 132.325 41.5531 130.999V120.382ZM62.112 122.308C62.029 122.669 62.029 123.269 62.112 124.632C62.3479 128.437 64.804 131.562 68.0107 131.562C70.2225 131.562 71.9512 130.359 73.4329 128.879L73.9943 129.44C72.1471 131.885 69.8579 133.967 66.5691 133.967C60.1827 133.967 58.8996 127.795 58.8996 125.232C58.8996 117.378 64.1969 115.053 67.0055 115.053C70.2607 115.053 73.7565 117.096 73.7919 121.343C73.7919 121.587 73.7919 121.824 73.7565 122.067L73.3919 122.308H62.112ZM69.2191 121.025C70.2225 121.025 70.339 120.503 70.339 120.023C70.339 117.98 69.0961 116.337 66.846 116.337C64.3983 116.337 62.7125 118.136 62.2313 121.025H69.2191ZM74.7179 132.325H75.8023C76.9222 132.325 77.726 132.325 77.726 130.999V119.742C77.726 118.501 76.2424 118.259 75.6391 117.939V117.34C78.5698 116.096 80.1765 115.053 80.5429 115.053C80.7788 115.053 80.8982 115.173 80.8982 115.576V119.181H80.984C81.9836 117.619 83.6732 115.053 86.1209 115.053C87.1251 115.053 88.4082 115.733 88.4082 117.177C88.4082 118.259 87.6473 119.223 86.5237 119.223C85.2742 119.223 85.2742 118.259 83.8709 118.259C83.1874 118.259 80.9401 119.181 80.9401 121.587V130.999C80.9401 132.325 81.7411 132.325 82.8666 132.325H85.1138V133.367C82.9048 133.326 81.2245 133.287 79.4958 133.287C77.85 133.287 76.1632 133.326 74.7179 133.367V132.325ZM90.1743 127.795C90.6974 130.439 92.3021 132.685 95.2347 132.685C97.5994 132.685 98.4825 131.242 98.4825 129.841C98.4825 125.111 89.7332 126.633 89.7332 120.184C89.7332 117.938 91.5422 115.053 95.9564 115.053C97.2395 115.053 98.9655 115.415 100.53 116.217L100.814 120.301H99.8896C99.4886 117.779 98.0843 116.336 95.5135 116.336C93.906 116.336 92.3823 117.258 92.3823 118.98C92.3823 123.672 101.697 122.226 101.697 128.517C101.697 131.16 99.5688 133.968 94.7899 133.968C93.1843 133.968 91.297 133.406 89.8936 132.606L89.4507 127.997L90.1743 127.795ZM137.95 112.648H136.948C136.184 107.963 132.851 106.078 128.357 106.078C123.737 106.078 117.031 109.162 117.031 118.778C117.031 126.877 122.817 132.685 128.997 132.685C132.97 132.685 136.266 129.961 137.069 125.752L137.991 125.992L137.069 131.842C135.383 132.887 130.845 133.967 128.193 133.967C118.802 133.967 112.861 127.916 112.861 118.9C112.861 110.686 120.206 104.794 128.075 104.794C131.326 104.794 134.459 105.839 137.549 106.921L137.95 112.648ZM139.398 132.325H140.157C141.284 132.325 142.088 132.325 142.088 130.999V108.685C142.088 106.078 141.486 105.998 139.96 105.558V104.917C141.565 104.396 143.252 103.675 144.095 103.192C144.533 102.954 144.856 102.75 144.975 102.75C145.219 102.75 145.3 102.993 145.3 103.314V130.999C145.3 132.325 146.182 132.325 147.308 132.325H147.986V133.367C146.625 133.367 145.219 133.287 143.774 133.287C142.329 133.287 140.884 133.326 139.398 133.367V132.325ZM165.176 131.16C165.176 131.885 165.616 131.923 166.297 131.923C166.78 131.923 167.38 131.885 167.904 131.885V132.728C166.175 132.887 162.885 133.728 162.121 133.968L161.919 133.847V130.603C159.514 132.566 157.664 133.968 154.81 133.968C152.644 133.968 150.396 132.566 150.396 129.201V118.941C150.396 117.899 150.237 116.897 147.99 116.697V115.935C149.438 115.896 152.644 115.656 153.168 115.656C153.613 115.656 153.613 115.935 153.613 116.818V127.153C153.613 128.357 153.613 131.803 157.103 131.803C158.468 131.803 160.275 130.761 161.959 129.362V118.578C161.959 117.779 160.033 117.34 158.591 116.938V116.217C162.2 115.975 164.452 115.656 164.851 115.656C165.176 115.656 165.176 115.935 165.176 116.378V131.16ZM173.164 117.939C174.768 116.576 176.937 115.053 179.147 115.053C183.804 115.053 186.611 119.103 186.611 123.469C186.611 128.718 182.759 133.968 177.014 133.968C174.046 133.968 172.48 133.005 171.435 132.566L170.232 133.485L169.392 133.046C169.747 130.682 169.953 128.357 169.953 125.914V108.685C169.953 106.078 169.347 105.998 167.823 105.558V104.917C169.432 104.396 171.114 103.675 171.959 103.192C172.4 102.954 172.719 102.75 172.844 102.75C173.085 102.75 173.164 102.993 173.164 103.314V117.939ZM173.164 128.837C173.164 130.359 174.608 132.927 177.298 132.927C181.595 132.927 183.4 128.718 183.4 125.149C183.4 120.823 180.112 117.219 176.979 117.219C175.49 117.219 174.247 118.181 173.164 119.103V128.837Z" fill="black"/>
<path fill-rule="evenodd" clip-rule="evenodd" d="M1371.47 100.896L1382.95 33.461H1401.3L1389.82 100.896H1371.47ZM1456.39 35.1234C1452.76 33.7547 1447.06 32.291 1439.94 32.291C1421.81 32.2888 1409.03 41.4369 1408.92 54.545C1408.82 64.2312 1418.04 69.6392 1425 72.8658C1432.15 76.1682 1434.55 78.2782 1434.52 81.2301C1434.47 85.7483 1428.81 87.8149 1423.53 87.8149C1416.19 87.8149 1412.29 86.7933 1406.26 84.2758L1403.89 83.2017L1401.32 98.2982C1405.6 100.182 1413.53 101.813 1421.76 101.898C1441.05 101.897 1453.58 92.8567 1453.72 78.8588C1453.79 71.1866 1448.9 65.3499 1438.31 60.5369C1431.9 57.4154 1427.97 55.3365 1428.01 52.177C1428.01 49.3736 1431.34 46.3771 1438.52 46.3771C1444.52 46.2822 1448.87 47.594 1452.26 48.9606L1453.9 49.7376L1456.39 35.1245L1456.39 35.1234ZM1503.46 33.5247H1489.28C1484.88 33.5247 1481.59 34.7282 1479.66 39.1192L1452.41 100.916H1471.68C1471.68 100.916 1474.83 92.6089 1475.54 90.7846C1477.65 90.7846 1496.37 90.8136 1499.05 90.8136C1499.6 93.1738 1501.28 100.917 1501.28 100.917L1518.32 100.916L1503.46 33.5247H1503.46ZM1480.82 76.991C1482.34 73.1058 1488.14 58.1422 1488.14 58.1422C1488.03 58.3208 1489.64 54.238 1490.57 51.7059L1491.81 57.5181C1491.81 57.5181 1495.33 73.6171 1496.06 76.9921L1480.82 76.991H1480.82ZM1356.08 33.5102L1338.11 79.4963L1336.2 70.1517C1332.85 59.3781 1322.43 47.7079 1310.78 41.8645L1327.21 100.838L1346.63 100.815L1375.52 33.5102H1356.08Z" fill="black"/>
<path fill-rule="evenodd" clip-rule="evenodd" d="M1321.46 33.4707H1291.86L1291.63 34.8741C1314.66 40.454 1329.89 53.9451 1336.22 70.1524L1329.78 39.1645C1328.67 34.8942 1325.45 33.6203 1321.46 33.4707Z" fill="black"/>
<path d="M318.668 108.66L245.41 108.686V108.51C245.41 108.413 245.527 107.783 245.67 107.111C245.813 106.44 246.035 105.371 246.163 104.736C246.292 104.102 246.511 103.024 246.652 102.341C246.792 101.658 247.024 100.52 247.169 99.8121C247.313 99.1045 247.539 97.9865 247.671 97.3278C247.803 96.669 248.024 95.591 248.161 94.9322C248.299 94.2734 248.533 93.1355 248.682 92.4035C248.831 91.6715 249.057 90.5536 249.185 89.9192C249.313 89.2848 249.516 88.3066 249.636 87.7455C249.756 87.1843 249.91 86.4257 249.977 86.0597C250.044 85.6937 250.262 84.6157 250.46 83.6641C250.659 82.7125 250.878 81.6345 250.947 81.2685C251.017 80.9025 251.237 79.8245 251.437 78.8729C251.636 77.9214 251.856 76.8434 251.924 76.4774C251.993 76.1114 252.213 75.0334 252.415 74.0818C252.616 73.1302 252.833 72.0722 252.897 71.7306C252.962 71.389 253.137 70.5106 253.288 69.7786C253.439 69.0466 253.724 67.6692 253.922 66.7176C254.12 65.766 254.459 64.1091 254.675 63.0355C254.89 61.9619 255.148 60.6843 255.248 60.1963C255.347 59.7083 255.527 58.83 255.647 58.2444C255.767 57.6588 255.986 56.6007 256.133 55.8932C256.279 55.1856 256.518 54.0277 256.663 53.3201C256.808 52.6125 257.031 51.5146 257.16 50.8802C257.288 50.2458 257.506 49.1878 257.645 48.529C257.785 47.8702 258.024 46.7123 258.177 45.9559C258.331 45.1996 258.588 44.0417 258.748 43.3829C258.909 42.7241 259.136 41.9256 259.253 41.6084C259.37 41.2912 259.693 40.6036 259.97 40.0804L260.475 39.1292L260.934 38.5277C261.186 38.197 261.637 37.6743 261.935 37.3662C262.234 37.0581 262.737 36.5946 263.054 36.3361C263.371 36.0776 263.83 35.7287 264.074 35.5608C264.318 35.3929 264.796 35.099 265.138 34.9076C265.479 34.7163 265.958 34.4657 266.202 34.3508C266.445 34.2358 266.944 34.0261 267.31 33.8847C267.676 33.7433 268.374 33.5063 268.862 33.358C269.349 33.2097 270.265 32.9861 270.896 32.8612C271.527 32.7363 272.524 32.5695 273.112 32.4905L274.181 32.3469L347.484 32.3189L420.786 32.291V32.4673C420.786 32.5643 420.668 33.1935 420.524 33.8654C420.381 34.5373 420.141 35.686 419.991 36.418C419.841 37.15 419.622 38.208 419.505 38.7692C419.387 39.3304 419.165 40.4084 419.011 41.1648C418.856 41.9212 418.619 43.079 418.483 43.7378C418.347 44.3966 418.127 45.4746 417.994 46.1334C417.861 46.7922 417.64 47.8702 417.503 48.529C417.365 49.1878 417.152 50.2258 417.029 50.8358C416.906 51.4458 416.683 52.5438 416.534 53.2758C416.385 54.0077 416.145 55.1656 416.001 55.8488C415.858 56.532 415.639 57.59 415.515 58.2C415.391 58.81 415.168 59.908 415.019 60.6399C414.871 61.3719 414.632 62.5298 414.488 63.213C414.344 63.8962 414.13 64.9342 414.012 65.5198C413.894 66.1054 413.672 67.2034 413.519 67.9598C413.365 68.7161 413.142 69.8141 413.022 70.3997C412.902 70.9853 412.688 72.0234 412.546 72.7066C412.404 73.3897 412.161 74.5676 412.007 75.3239C411.852 76.0803 411.631 77.1583 411.515 77.7195C411.399 78.2807 411.183 79.3388 411.033 80.0707C410.884 80.8027 410.647 81.9606 410.506 82.6438C410.365 83.3269 410.144 84.405 410.015 85.0393C409.886 85.6737 409.661 86.7717 409.516 87.4793C409.371 88.1869 409.134 89.3447 408.989 90.0523C408.844 90.7599 408.627 91.8179 408.507 92.4035C408.386 92.9891 408.166 94.0671 408.018 94.7991C407.869 95.5311 407.628 96.6846 407.481 97.3624L407.214 98.5949L406.896 99.4475C406.721 99.9164 406.458 100.54 406.311 100.832C406.165 101.125 405.867 101.642 405.648 101.98C405.43 102.319 405.126 102.753 404.973 102.944C404.819 103.136 404.357 103.631 403.946 104.044L403.198 104.795L402.478 105.307C402.083 105.588 401.656 105.875 401.531 105.943C401.406 106.011 400.929 106.255 400.472 106.484C400.014 106.713 399.368 107.005 399.035 107.133C398.703 107.26 398.045 107.477 397.572 107.614C397.1 107.752 396.594 107.887 396.448 107.915C396.301 107.943 395.794 108.049 395.319 108.149C394.845 108.25 393.887 108.4 393.191 108.483L391.926 108.634L318.668 108.66ZM292.604 89.6974H294.511L294.564 89.5571C294.594 89.4799 294.618 89.2984 294.618 89.1538C294.618 89.0092 294.681 88.4834 294.758 87.9854C294.835 87.4874 295.015 86.3414 295.158 85.4386C295.302 84.5358 295.517 83.1783 295.636 82.4219C295.755 81.6656 295.9 80.6974 295.959 80.2704C296.017 79.8434 296.089 79.494 296.118 79.494C296.147 79.494 296.27 79.6827 296.392 79.9133L296.613 80.3326L297.105 80.8282L297.596 81.3237L298.201 81.5661L298.806 81.8085L299.527 81.902L300.248 81.9955L301.164 81.9393L302.079 81.8832L303.07 81.6265L304.061 81.3699L304.593 81.1269C304.885 80.9932 305.404 80.7019 305.745 80.4794L306.366 80.0748L306.945 79.4961C307.263 79.1777 307.712 78.6673 307.942 78.3618C308.173 78.0562 308.361 77.784 308.361 77.7567C308.361 77.7294 308.474 77.5402 308.612 77.3362C308.751 77.1323 309.034 76.5661 309.241 76.0781C309.449 75.5901 309.774 74.7117 309.963 74.1262L310.306 73.0615L310.484 72.1392C310.582 71.632 310.707 70.7935 310.763 70.276L310.865 69.335L310.806 68.5365L310.747 67.7379L310.562 66.9394L310.377 66.1409L310.078 65.543L309.778 64.9452L309.2 64.3315L308.621 63.7178L307.937 63.3639L307.253 63.0099L306.499 62.8293L305.745 62.6488L304.992 62.5934L304.238 62.538L303.399 62.6346L302.559 62.7311L301.874 62.9062L301.189 63.0813L300.593 63.357C300.266 63.5086 299.79 63.7662 299.535 63.9293C299.28 64.0925 299.017 64.2802 298.951 64.3464C298.884 64.4127 298.725 64.5355 298.597 64.6192L298.364 64.7716L298.527 63.9923C298.616 63.5636 298.691 63.1631 298.693 63.1021L298.697 62.9912H297.071H295.446L295.161 64.7878C295.004 65.776 294.756 67.3032 294.611 68.1816C294.465 69.06 294.245 70.3775 294.122 71.1095C293.999 71.8415 293.78 73.1391 293.635 73.9931C293.49 74.847 293.25 76.2045 293.102 77.0097C292.955 77.8149 292.738 78.9927 292.621 79.6271C292.504 80.2615 292.284 81.4593 292.132 82.2889C291.98 83.1184 291.735 84.436 291.589 85.2168C291.442 85.9976 291.203 87.2353 291.058 87.9673C290.913 88.6992 290.773 89.388 290.746 89.4978L290.698 89.6974H292.604ZM300.811 79.4391L300.071 79.4837L299.587 79.3982L299.103 79.3127L298.612 79.0882L298.12 78.8637L297.777 78.5356L297.434 78.2075L297.236 77.7639C297.127 77.5199 296.987 77.1054 296.924 76.8428L296.811 76.3654L296.857 75.6006L296.902 74.836L297.13 73.6382C297.256 72.9794 297.482 71.7417 297.632 70.8877C297.782 70.0337 298.009 68.7824 298.137 68.1071L298.369 66.8792L298.877 66.4559C299.157 66.2231 299.6 65.9111 299.861 65.7625L300.337 65.4925L300.958 65.3002L301.578 65.108L302.376 65.0611L303.174 65.0142L303.824 65.1528L304.474 65.2914L304.932 65.5027L305.391 65.714L305.775 66.1009L306.16 66.4877L306.367 66.8973C306.481 67.1227 306.642 67.5637 306.723 67.8774L306.872 68.4478L306.826 70.1335L306.781 71.8193L306.553 72.8157C306.428 73.3638 306.19 74.2022 306.023 74.6789L305.721 75.5458L305.351 76.2474C305.148 76.6334 304.834 77.1549 304.654 77.4064C304.474 77.6578 304.187 77.9836 304.016 78.1303C303.846 78.277 303.56 78.5062 303.381 78.6397L303.056 78.8824L302.304 79.1385L301.551 79.3946L300.811 79.4391ZM319.222 81.8783L320.198 81.8894L321.173 81.8004C321.709 81.7515 322.587 81.6495 323.123 81.5739C323.66 81.4983 324.586 81.3291 325.183 81.1978L326.267 80.9591L326.321 80.5593C326.35 80.3394 326.472 79.6847 326.591 79.1045L326.808 78.0495L326.76 78.0017L326.712 77.9539L326.381 78.114C326.198 78.2021 325.631 78.4122 325.119 78.5809L324.189 78.8877L323.213 79.0769L322.237 79.2661L320.685 79.2691L319.134 79.2722L318.602 79.1021C318.309 79.0086 317.879 78.8376 317.645 78.722L317.221 78.5118L316.871 78.1952L316.52 77.8785L316.247 77.4006L315.974 76.9227L315.803 76.3232L315.631 75.7237L315.63 74.6144L315.629 73.505L315.781 72.5154L315.933 71.5257L317.267 71.4634L318.602 71.401L323.534 71.4327L328.466 71.4644L328.614 70.8322C328.696 70.4845 328.822 69.7659 328.893 69.2352L329.022 68.2703L329.025 67.4586L329.028 66.6469L328.887 66.041L328.747 65.435L328.514 65.0338C328.387 64.8131 328.162 64.4933 328.014 64.3231C327.867 64.1529 327.604 63.9129 327.43 63.7898C327.256 63.6667 326.914 63.4599 326.67 63.3302L326.227 63.0943L325.452 62.9075L324.677 62.7207L323.723 62.6294L322.769 62.538L321.882 62.5958L320.995 62.6536L319.932 62.858L318.868 63.0625L318.203 63.3286C317.837 63.4749 317.278 63.7417 316.961 63.9216C316.644 64.1014 316.205 64.3941 315.986 64.572C315.767 64.75 315.387 65.0959 315.142 65.3407C314.897 65.5856 314.534 66.0255 314.337 66.3183C314.139 66.6111 313.835 67.1301 313.662 67.4717C313.49 67.8133 313.264 68.2924 313.162 68.5364C313.059 68.7804 312.873 69.2795 312.748 69.6455C312.623 70.0115 312.426 70.7102 312.311 71.1982C312.196 71.6862 312.038 72.4895 311.96 72.9833L311.819 73.8811L311.82 75.2014L311.821 76.5217L311.956 77.0984C312.03 77.4156 312.172 77.8948 312.271 78.1631C312.37 78.4315 312.553 78.8308 312.678 79.0504C312.803 79.27 313.07 79.6236 313.271 79.8361C313.472 80.0486 313.836 80.3711 314.08 80.5528C314.324 80.7344 314.758 80.9899 315.044 81.1205L315.566 81.3579L316.292 81.5337C316.692 81.6305 317.295 81.745 317.633 81.7884C317.971 81.8317 318.686 81.8722 319.222 81.8783ZM320.892 69.3794C318.438 69.3794 316.429 69.3618 316.429 69.3403C316.429 69.3188 316.534 69.0094 316.662 68.6527C316.79 68.296 317.015 67.765 317.162 67.4728L317.428 66.9416L318.015 66.3578L318.602 65.7741L319.178 65.4983C319.495 65.3466 319.914 65.1815 320.109 65.1313C320.304 65.0811 320.862 65.0146 321.35 64.9834L322.237 64.9267L322.918 65.0142L323.598 65.1018L324.093 65.3285L324.588 65.5552L324.86 65.848C325.009 66.0091 325.187 66.2463 325.255 66.3752L325.379 66.6094L325.461 67.1293L325.542 67.6492L325.449 68.5143L325.355 69.3794H320.892ZM347.418 81.8788L348.393 81.8896L349.501 81.7582C350.11 81.686 350.921 81.5662 351.303 81.4921C351.685 81.418 352.304 81.2709 352.678 81.1653C353.052 81.0596 353.39 80.9453 353.429 80.9114C353.469 80.8774 353.575 80.4747 353.664 80.0165C353.754 79.5584 353.867 78.9439 353.915 78.6511C353.963 78.3583 353.988 78.1031 353.97 78.084C353.953 78.0648 353.887 78.0895 353.825 78.1389C353.763 78.1883 353.328 78.3715 352.858 78.546L352.005 78.8634L350.789 79.0991L349.573 79.3348L348.539 79.2995L347.506 79.2642L346.919 79.0604L346.331 78.8567L345.878 78.4595L345.424 78.0624L345.123 77.5139L344.822 76.9654L344.679 76.2316L344.536 75.4978L344.536 74.5458L344.537 73.5938L344.711 72.4404L344.886 71.287L345.07 70.6659C345.171 70.3243 345.286 69.925 345.325 69.7786C345.364 69.6322 345.526 69.213 345.686 68.847C345.846 68.481 346.131 67.9154 346.32 67.59L346.663 66.9984L347.085 66.5614L347.506 66.1243L347.953 65.8473L348.399 65.5702L348.972 65.3935C349.288 65.2964 349.845 65.1702 350.211 65.1131L350.876 65.0095L351.851 65.0584L352.826 65.1074L353.979 65.3383L355.131 65.5691L355.6 65.7441C355.858 65.8404 356.08 65.9191 356.094 65.9191C356.108 65.9191 356.17 65.5897 356.231 65.1871C356.293 64.7845 356.403 64.1222 356.476 63.7152C356.549 63.3083 356.591 62.9578 356.569 62.9364C356.548 62.915 356.201 62.8599 355.799 62.814C355.397 62.7681 354.304 62.6867 353.371 62.633L351.674 62.5354L350.477 62.6273L349.28 62.7192L348.393 62.9056L347.506 63.0921L346.935 63.3206C346.621 63.4463 346.161 63.6732 345.913 63.8247C345.665 63.9762 345.349 64.1801 345.211 64.2777C345.073 64.3753 344.655 64.7561 344.281 65.1239L343.602 65.7926L343.223 66.3483C343.015 66.654 342.654 67.2913 342.422 67.7646L341.999 68.6252L341.675 69.5568C341.497 70.0692 341.249 70.9077 341.123 71.42L340.894 72.3517L340.811 73.1945L340.728 74.0374L340.729 75.1465L340.73 76.2556L340.814 76.9007L340.897 77.5459L341.163 78.2096L341.429 78.8733L341.735 79.3531L342.042 79.833L342.53 80.3133L343.018 80.7937L343.533 81.0665L344.049 81.3394L344.727 81.5278C345.1 81.6314 345.639 81.7503 345.924 81.7921C346.21 81.8338 346.882 81.8728 347.419 81.8788H347.418ZM362.002 81.846L363.199 81.8117L363.953 81.6187L364.706 81.4256L365.194 81.1949C365.462 81.068 365.901 80.8176 366.169 80.6383C366.438 80.4591 366.853 80.1183 367.092 79.881C367.331 79.6438 367.686 79.239 367.88 78.9815C368.074 78.724 368.245 78.5251 368.259 78.5394C368.274 78.5537 368.229 78.964 368.16 79.4512C368.091 79.9383 368.034 80.5864 368.033 80.8914L368.031 81.446H369.659H371.286L371.336 80.1816L371.385 78.9173L371.617 77.2759C371.745 76.3731 371.951 75.0356 372.076 74.3036C372.2 73.5716 372.416 72.3339 372.556 71.5531C372.696 70.7723 372.918 69.5546 373.049 68.847L373.287 67.5605L373.295 66.4492L373.303 65.338L373.052 64.8244L372.801 64.3108L372.46 63.9837L372.12 63.6566L371.561 63.3731L371.002 63.0897L370.168 62.9042L369.335 62.7188L368.188 62.6314L367.041 62.544L365.563 62.6355C364.751 62.6858 363.607 62.7852 363.022 62.8563L361.958 62.9856L361.233 62.9884L360.508 62.9911L360.402 63.5013C360.344 63.7819 360.183 64.4485 360.044 64.9827C359.905 65.5169 359.804 65.9669 359.82 65.9826C359.835 65.9984 360.223 65.9103 360.681 65.7869C361.14 65.6635 362.113 65.4605 362.845 65.3359L364.175 65.1092L365.371 65.0599L366.568 65.0105L367.339 65.1458L368.11 65.281L368.625 65.5352L369.14 65.7893L369.428 66.2191L369.716 66.6489L369.712 67.3265L369.708 68.0041L369.555 68.7477L369.402 69.4912L366.212 69.5028L363.022 69.5143L361.978 69.8008C361.403 69.9583 360.768 70.1675 360.565 70.2656C360.362 70.3637 360.159 70.444 360.114 70.444C360.068 70.444 359.727 70.6336 359.354 70.8653L358.677 71.2865L358.144 71.8191C357.851 72.112 357.476 72.5512 357.312 72.7952C357.147 73.0392 356.879 73.549 356.717 73.9279L356.422 74.617L356.286 75.3919L356.151 76.1668V76.9797V77.7926L356.28 78.4694L356.41 79.1462L356.65 79.5877C356.782 79.8305 357.024 80.1861 357.188 80.378L357.487 80.7269L358.017 81.0492L358.547 81.3716L359.154 81.5435C359.488 81.638 359.996 81.7525 360.284 81.7978L360.806 81.8803L362.003 81.846L362.002 81.846ZM363.11 79.365L362.401 79.402L361.931 79.2823C361.673 79.2165 361.281 79.0696 361.06 78.956L360.659 78.7493L360.44 78.4888C360.319 78.3454 360.135 78.0638 360.03 77.8629L359.84 77.4977L359.803 76.6448L359.766 75.7919L359.916 75.2745C359.999 74.99 360.193 74.4962 360.347 74.1773L360.628 73.5974L361.165 73.0632L361.703 72.5291L362.274 72.2541L362.844 71.9791L363.554 71.8105L364.263 71.6419H366.48H368.696L368.836 71.6999L368.977 71.7579L368.859 72.454C368.794 72.8369 368.639 73.5295 368.515 73.9931C368.39 74.4567 368.171 75.1381 368.027 75.5075C367.883 75.8768 367.765 76.2033 367.765 76.2331C367.765 76.2628 367.62 76.532 367.441 76.8311L367.118 77.3751L366.586 77.9022C366.294 78.1921 366.022 78.4293 365.983 78.4293C365.943 78.4293 365.764 78.5292 365.584 78.6512L365.258 78.8731L364.539 79.1006L363.82 79.328L363.11 79.365ZM391.97 81.8777L392.813 81.8883L393.611 81.7587C394.049 81.6875 394.608 81.5726 394.852 81.5036C395.096 81.4345 395.535 81.2553 395.827 81.1053L396.359 80.8325L396.817 80.4294L397.274 80.0263L397.756 79.3831C398.021 79.0293 398.262 78.68 398.29 78.6068L398.341 78.4737L398.297 78.9173C398.272 79.1613 398.217 79.5606 398.174 79.8046C398.131 80.0486 398.07 80.5177 398.037 80.8471L397.979 81.446H399.718H401.457V80.8471V80.2482L401.722 77.9857C401.868 76.7413 402.083 75.0844 402.201 74.3036C402.319 73.5228 402.5 72.4049 402.605 71.8193C402.709 71.2337 402.894 70.1757 403.015 69.4681C403.137 68.7605 403.356 67.5228 403.503 66.7176C403.65 65.9124 403.884 64.6348 404.025 63.8784C404.165 63.122 404.383 61.9442 404.509 61.261C404.635 60.5778 404.861 59.38 405.012 58.5993C405.162 57.8185 405.381 56.7205 405.499 56.1593C405.617 55.5981 405.713 55.109 405.713 55.0724V55.0059H403.815H401.918L401.862 55.5604C401.831 55.8654 401.686 56.8736 401.539 57.8007C401.392 58.7279 401.153 60.2052 401.007 61.0836C400.862 61.9619 400.721 62.8137 400.695 62.9764L400.648 63.2722L400.499 63.2084C400.416 63.1734 399.97 63.0495 399.507 62.9331L398.664 62.7214L397.512 62.6316L396.359 62.5418L395.384 62.6327L394.408 62.7236L393.522 62.9479L392.635 63.1722L391.793 63.5833L390.951 63.9944L390.33 64.4542L389.709 64.914L389.173 65.4891C388.878 65.8054 388.453 66.3286 388.227 66.6517L387.816 67.2392L387.335 68.2427C387.069 68.7947 386.747 69.5258 386.618 69.8674C386.489 70.2089 386.261 70.9662 386.111 71.55L385.84 72.6117L385.706 73.99L385.573 75.3683L385.673 76.4774L385.773 77.5864L385.892 77.9857C385.957 78.2053 386.095 78.5965 386.198 78.8551L386.385 79.3253L386.727 79.7876L387.068 80.25L387.458 80.5694L387.847 80.8889L388.379 81.1532C388.672 81.2986 389.163 81.4865 389.47 81.5707C389.777 81.655 390.276 81.7561 390.578 81.7955C390.881 81.8349 391.507 81.8719 391.97 81.8777H391.97ZM393.482 79.3604L392.813 79.396L392.361 79.3146C392.112 79.2699 391.715 79.1499 391.477 79.048L391.045 78.8627L390.682 78.5647L390.318 78.2667L390.048 77.7491L389.778 77.2315L389.655 76.6548L389.532 76.0781L389.542 74.9247L389.553 73.7713L389.696 72.7509L389.839 71.7306L390.061 71.0208C390.183 70.6304 390.284 70.2621 390.284 70.2023C390.285 70.1425 390.406 69.8231 390.552 69.4925C390.699 69.1619 390.944 68.6518 391.097 68.359C391.25 68.0662 391.536 67.6098 391.732 67.3447C391.928 67.0796 392.278 66.6804 392.509 66.4575C392.741 66.2345 393.108 65.9422 393.327 65.8077L393.724 65.5633L394.421 65.3219L395.118 65.0805L396.581 65.0796H398.044L398.886 65.3135C399.349 65.4421 399.841 65.5912 399.979 65.6449L400.23 65.7425L400.181 65.9861C400.154 66.12 400.049 66.7087 399.947 67.2943C399.845 67.8799 399.644 68.9978 399.501 69.7786C399.357 70.5594 399.137 71.7372 399.011 72.396C398.885 73.0548 398.703 73.8933 398.606 74.2592C398.509 74.6252 398.372 75.1322 398.301 75.3858C398.231 75.6393 398.064 76.0785 397.93 76.3617C397.795 76.6449 397.56 77.0563 397.408 77.2759C397.255 77.4955 396.996 77.7997 396.833 77.9519C396.67 78.1041 396.317 78.3745 396.049 78.5529L395.561 78.8772L394.856 79.101L394.152 79.3249L393.482 79.3604ZM262.992 81.446H265.146L265.301 80.4922C265.386 79.9676 265.552 78.9595 265.67 78.2519C265.788 77.5443 266.007 76.2267 266.157 75.3239C266.308 74.4212 266.533 73.0836 266.658 72.3517C266.783 71.6197 266.982 70.4842 267.1 69.8284C267.218 69.1725 267.336 68.6136 267.364 68.5862L267.413 68.5365H273.206H278.999L279.063 68.6008L279.127 68.6652L279.027 69.1775C278.972 69.4593 278.808 70.3287 278.664 71.1095C278.519 71.8903 278.276 73.2078 278.124 74.0374C277.972 74.867 277.751 76.0448 277.634 76.6548C277.517 77.2648 277.281 78.5424 277.109 79.494C276.936 80.4456 276.796 81.2741 276.796 81.3351L276.797 81.446H278.96H281.123L281.219 80.8914C281.272 80.5864 281.356 80.0375 281.407 79.6715C281.458 79.3055 281.581 78.5269 281.68 77.9413C281.779 77.3557 281.977 76.1979 282.119 75.3683C282.262 74.5387 282.501 73.1213 282.651 72.2186C282.8 71.3158 283.022 69.9982 283.143 69.2906C283.264 68.5831 283.481 67.3853 283.624 66.6289C283.767 65.8725 284.005 64.5949 284.153 63.7897C284.301 62.9845 284.523 61.7668 284.647 61.0836C284.77 60.4004 284.994 59.1627 285.145 58.3331C285.297 57.5035 285.488 56.5353 285.57 56.1815L285.719 55.5383H283.529H281.339L281.279 55.9597C281.247 56.1915 281.141 56.8403 281.044 57.4015C280.948 57.9627 280.772 58.9608 280.654 59.6196C280.536 60.2784 280.32 61.5361 280.174 62.4144C280.029 63.2928 279.843 64.4556 279.762 64.9984L279.614 65.9852L276.399 66.0503L273.184 66.1155L270.491 66.0515C269.01 66.0163 267.789 65.9806 267.779 65.972C267.769 65.9635 267.82 65.6187 267.892 65.2058C267.963 64.7929 268.099 64.0758 268.193 63.6122C268.287 63.1486 268.465 62.2303 268.589 61.5716C268.713 60.9128 268.853 60.0943 268.901 59.7527C268.949 59.4111 269.049 58.8422 269.123 58.4884C269.197 58.1346 269.338 57.3893 269.437 56.8323C269.535 56.2753 269.639 55.7562 269.669 55.6789L269.723 55.5383H267.55H265.378L265.239 56.3146C265.162 56.7416 265.06 57.3505 265.012 57.6677C264.964 57.9848 264.802 59.003 264.652 59.9301C264.503 60.8573 264.282 62.2348 264.162 62.9912C264.041 63.7475 263.822 65.125 263.675 66.0522C263.527 66.9794 263.284 68.4167 263.134 69.2463C262.984 70.0759 262.767 71.2537 262.652 71.8637C262.536 72.4736 262.316 73.6315 262.163 74.4367C262.01 75.2419 261.786 76.3798 261.666 76.9654C261.546 77.5509 261.413 78.2297 261.371 78.4737C261.329 78.7177 261.191 79.4214 261.066 80.0375C260.94 80.6536 260.838 81.2226 260.838 81.3018V81.446H262.992ZM286.84 81.446H288.747L288.801 81.3056C288.831 81.2284 288.855 81.026 288.855 80.8557C288.855 80.6854 288.975 79.8003 289.122 78.8888C289.268 77.9773 289.51 76.4929 289.66 75.5901C289.809 74.6873 290.03 73.3698 290.15 72.6622C290.27 71.9546 290.484 70.7768 290.626 70.0448C290.767 69.3128 290.983 68.1749 291.107 67.5161C291.231 66.8574 291.474 65.604 291.648 64.7309C291.821 63.8578 291.985 63.1084 292.011 63.0656L292.06 62.9877L290.131 63.0116L288.202 63.0355L288.042 64.1889C287.953 64.8233 287.76 66.081 287.613 66.9838C287.465 67.8866 287.241 69.264 287.116 70.0448C286.991 70.8256 286.772 72.0833 286.63 72.8396C286.488 73.596 286.271 74.7539 286.147 75.4127C286.023 76.0715 285.801 77.2293 285.653 77.9857C285.506 78.7421 285.307 79.7402 285.213 80.2038C285.118 80.6674 285.017 81.1365 284.987 81.2463L284.933 81.446H286.84ZM331.444 81.446H333.337L333.394 80.6444C333.426 80.2036 333.533 79.3152 333.632 78.6703C333.732 78.0254 333.936 76.7391 334.086 75.8119C334.236 74.8848 334.514 73.3415 334.704 72.3825C334.895 71.4234 335.11 70.4702 335.182 70.2641C335.255 70.058 335.315 69.8347 335.315 69.7678C335.315 69.701 335.457 69.3367 335.631 68.9583C335.805 68.5799 336.129 68.0005 336.351 67.6707L336.755 67.0711L337.296 66.5699L337.837 66.0687L338.504 65.7499L339.171 65.4311L340.191 65.4364L341.211 65.4417L341.712 65.5917C341.988 65.6741 342.237 65.7416 342.266 65.7416C342.295 65.7416 342.319 65.6473 342.319 65.532C342.319 65.4167 342.419 64.8323 342.541 64.2332C342.663 63.6342 342.762 63.1189 342.762 63.088C342.762 63.0571 342.473 62.9438 342.119 62.8362C341.766 62.7287 341.277 62.616 341.033 62.5858L340.59 62.5311L340.014 62.6331C339.697 62.6892 339.225 62.813 338.966 62.9083C338.707 63.0036 338.279 63.2196 338.016 63.3885C337.752 63.5573 337.342 63.8863 337.104 64.1196C336.866 64.3529 336.467 64.8233 336.216 65.1649C335.965 65.5065 335.702 65.8658 335.632 65.9634L335.505 66.1408L335.582 65.7859C335.625 65.5907 335.743 64.9519 335.845 64.3663C335.947 63.7807 336.051 63.2318 336.077 63.1464L336.124 62.9911H334.434H332.743V63.205C332.743 63.3226 332.644 64.0313 332.522 64.7798C332.4 65.5284 332.199 66.7797 332.075 67.5604C331.951 68.3412 331.731 69.6987 331.586 70.5771C331.442 71.4555 331.222 72.7131 331.098 73.3719C330.974 74.0307 330.754 75.1886 330.609 75.945C330.464 76.7013 330.223 77.939 330.074 78.6954C329.925 79.4518 329.746 80.3451 329.677 80.6805C329.608 81.0158 329.551 81.3253 329.551 81.3681V81.4459L331.444 81.446ZM376.381 81.446H378.316V80.8532V80.2605L378.539 78.7904C378.662 77.9818 378.864 76.7014 378.989 75.945C379.114 75.1886 379.269 74.2304 379.334 73.8156C379.4 73.4008 379.573 72.5025 379.719 71.8193C379.865 71.1361 380.047 70.3975 380.124 70.1779C380.201 69.9583 380.265 69.7279 380.265 69.6659C380.266 69.6039 380.431 69.2052 380.632 68.78L380.997 68.0068L381.479 67.3659L381.961 66.725L382.489 66.3282C382.779 66.11 383.246 65.8203 383.526 65.6846L384.035 65.4378L385.143 65.4454L386.252 65.4531L386.688 65.5933L387.124 65.7335L387.198 65.688L387.271 65.6425L387.275 65.3594C387.277 65.2037 387.372 64.6243 387.486 64.0718L387.693 63.0674L387.46 62.9761C387.332 62.9258 387.027 62.8219 386.784 62.7451L386.34 62.6054L385.542 62.6074L384.744 62.6094L384.094 62.8384L383.444 63.0673L382.955 63.362L382.467 63.6566L381.832 64.3221L381.197 64.9875L380.856 65.5037C380.669 65.7876 380.504 66.0072 380.489 65.9917C380.475 65.9762 380.577 65.3845 380.716 64.677C380.855 63.9694 380.97 63.3006 380.972 63.1908L380.976 62.9912H379.336H377.696V63.0477C377.696 63.0788 377.614 63.6478 377.514 64.3121C377.414 64.9763 377.213 66.2585 377.068 67.1613C376.923 68.064 376.684 69.5214 376.538 70.3997C376.392 71.2781 376.172 72.5358 376.049 73.1946C375.925 73.8534 375.707 75.0112 375.563 75.7676C375.419 76.524 375.182 77.7417 375.036 78.4737C374.891 79.2057 374.699 80.1739 374.609 80.6253L374.445 81.446L376.381 81.446ZM290.59 59.7951L291.129 59.7971L291.557 59.6511L291.985 59.5052L292.363 59.1208L292.742 58.7364L292.942 58.2242L293.141 57.712L293.148 56.9579L293.155 56.2037L292.978 55.9092L292.801 55.6147L292.492 55.4234L292.183 55.2322H291.517L290.85 55.2322L290.396 55.4355L289.942 55.6388L289.679 55.9212L289.416 56.2037L289.209 56.6917L289.002 57.1797L288.963 57.9398L288.924 58.6999L289.116 59.0777L289.309 59.4555L289.68 59.6243L290.052 59.7932L290.59 59.7951Z" fill="black"/>
<path fill-rule="evenodd" clip-rule="evenodd" d="M509.36 128.361C508.833 127.832 508.209 127.42 507.486 127.127C506.763 126.836 505.971 126.688 505.111 126.688C504.655 126.688 504.183 126.727 503.692 126.806C503.201 126.883 502.722 127.024 502.251 127.221C501.78 127.42 501.332 127.695 500.908 128.047C500.484 128.397 500.113 128.841 499.8 129.374C499.294 128.537 498.608 127.88 497.744 127.402C496.879 126.927 495.89 126.688 494.777 126.688C494.403 126.688 494.017 126.722 493.616 126.789C493.216 126.857 492.819 126.975 492.425 127.142C492.031 127.311 491.654 127.538 491.295 127.826C490.935 128.114 490.61 128.478 490.316 128.918V127.08H487.16V142.13H490.345V133.788C490.345 133.149 490.447 132.581 490.649 132.083C490.851 131.585 491.123 131.17 491.462 130.835C491.8 130.498 492.196 130.245 492.652 130.073C493.108 129.901 493.593 129.813 494.108 129.813C495.181 129.813 496.013 130.152 496.604 130.835C497.195 131.515 497.491 132.49 497.491 133.756V142.13H500.677V133.788C500.677 133.149 500.779 132.581 500.981 132.083C501.183 131.585 501.454 131.17 501.792 130.835C502.131 130.498 502.528 130.245 502.983 130.073C503.439 129.901 503.924 129.813 504.44 129.813C505.511 129.813 506.344 130.152 506.936 130.835C507.528 131.515 507.823 132.49 507.823 133.756V142.13H511.01V132.672C511.01 131.792 510.865 130.986 510.577 130.252C510.289 129.52 509.881 128.888 509.356 128.36L509.36 128.361ZM658.955 141.114V141.363H659.241C659.299 141.363 659.346 141.355 659.376 141.336C659.408 141.318 659.424 141.286 659.424 141.241C659.424 141.196 659.408 141.164 659.376 141.145C659.345 141.124 659.299 141.114 659.241 141.114H658.955ZM659.248 140.782C659.435 140.782 659.576 140.823 659.672 140.906C659.769 140.989 659.817 141.099 659.817 141.24C659.817 141.349 659.783 141.439 659.714 141.511C659.644 141.582 659.543 141.631 659.412 141.651L659.834 142.141H659.377L659 141.666H658.956V142.141H658.574V140.781H659.249L659.248 140.782ZM659.159 142.573C659.312 142.573 659.455 142.544 659.589 142.485C659.722 142.427 659.84 142.348 659.939 142.249C660.038 142.148 660.116 142.03 660.174 141.896C660.23 141.761 660.258 141.617 660.258 141.461C660.258 141.308 660.23 141.164 660.174 141.029C660.117 140.893 660.039 140.776 659.939 140.677C659.842 140.578 659.723 140.499 659.589 140.441C659.455 140.384 659.312 140.354 659.159 140.354C659.002 140.354 658.857 140.384 658.722 140.441C658.587 140.5 658.468 140.578 658.368 140.677C658.27 140.776 658.189 140.893 658.133 141.029C658.077 141.164 658.048 141.308 658.048 141.461C658.048 141.616 658.076 141.761 658.133 141.896C658.189 142.03 658.269 142.148 658.368 142.249C658.468 142.348 658.587 142.427 658.722 142.485C658.857 142.544 659.002 142.573 659.159 142.573ZM659.159 139.928C659.377 139.928 659.582 139.969 659.773 140.05C659.965 140.13 660.132 140.241 660.273 140.379C660.416 140.518 660.528 140.679 660.609 140.865C660.692 141.052 660.732 141.25 660.732 141.462C660.732 141.672 660.692 141.871 660.609 142.057C660.528 142.242 660.417 142.407 660.273 142.547C660.132 142.688 659.965 142.798 659.773 142.879C659.582 142.961 659.377 143.001 659.159 143.001C658.936 143.001 658.728 142.961 658.535 142.879C658.342 142.798 658.175 142.688 658.032 142.547C657.891 142.407 657.779 142.244 657.698 142.057C657.618 141.871 657.576 141.671 657.576 141.462C657.576 141.25 657.617 141.053 657.698 140.865C657.779 140.679 657.891 140.517 658.032 140.379C658.175 140.241 658.342 140.13 658.535 140.05C658.728 139.969 658.936 139.928 659.159 139.928ZM595.972 131.127C596.388 130.703 596.885 130.372 597.461 130.136C598.036 129.901 598.657 129.782 599.326 129.782C600.063 129.782 600.746 129.9 601.378 130.136C601.99 130.364 602.52 130.682 602.97 131.087L604.546 128.457C603.955 127.983 603.289 127.595 602.548 127.293C601.56 126.89 600.487 126.689 599.326 126.689C598.166 126.689 597.093 126.89 596.104 127.293C595.116 127.696 594.266 128.252 593.549 128.959C592.834 129.665 592.272 130.502 591.865 131.465C591.457 132.429 591.252 133.475 591.252 134.606C591.252 135.738 591.456 136.785 591.865 137.75C592.272 138.713 592.834 139.547 593.549 140.256C594.264 140.963 595.116 141.517 596.104 141.921C597.093 142.324 598.166 142.526 599.326 142.526C600.487 142.526 601.56 142.324 602.548 141.921C603.289 141.618 603.955 141.231 604.546 140.756L602.97 138.127C602.52 138.531 601.99 138.849 601.378 139.077C600.746 139.313 600.062 139.431 599.326 139.431C598.658 139.431 598.036 139.314 597.461 139.077C596.885 138.841 596.388 138.512 595.972 138.088C595.554 137.664 595.225 137.156 594.985 136.565C594.744 135.971 594.625 135.321 594.625 134.607C594.625 133.895 594.744 133.243 594.985 132.652C595.225 132.059 595.555 131.552 595.973 131.128L595.972 131.127ZM648.855 136.523C648.636 137.111 648.326 137.619 647.929 138.048C647.532 138.477 647.057 138.814 646.503 139.06C645.95 139.307 645.332 139.43 644.655 139.43C643.943 139.43 643.308 139.302 642.75 139.045C642.191 138.789 641.718 138.443 641.331 138.008C640.944 137.574 640.647 137.063 640.438 136.477C640.228 135.89 640.124 135.268 640.124 134.607C640.124 133.948 640.229 133.325 640.438 132.738C640.647 132.152 640.944 131.641 641.331 131.206C641.718 130.772 642.191 130.426 642.75 130.169C643.308 129.912 643.945 129.784 644.655 129.784C645.332 129.784 645.95 129.907 646.503 130.154C647.058 130.399 647.533 130.737 647.929 131.167C648.326 131.597 648.635 132.104 648.855 132.691C649.075 133.277 649.183 133.915 649.183 134.607C649.183 135.3 649.073 135.939 648.855 136.525V136.523ZM648.981 120.964V128.904C648.457 128.235 647.81 127.696 647.036 127.295C646.262 126.89 645.337 126.689 644.261 126.689C643.205 126.689 642.223 126.884 641.314 127.278C640.405 127.671 639.61 128.218 638.93 128.919C638.25 129.62 637.718 130.455 637.331 131.425C636.943 132.393 636.75 133.453 636.75 134.606C636.75 135.759 636.943 136.819 637.331 137.787C637.718 138.757 638.25 139.592 638.93 140.295C639.609 140.996 640.403 141.543 641.314 141.936C642.223 142.329 643.205 142.525 644.261 142.525C645.336 142.525 646.262 142.326 647.036 141.927C647.809 141.531 648.457 140.996 648.981 140.326V142.133H652.256V120.964H648.981ZM633.677 126.689C632.756 126.689 631.926 126.856 631.184 127.191C630.442 127.527 629.82 128.333 629.32 129.056V127.082H626.344V142.133H629.351V133.853C629.351 133.214 629.439 132.642 629.618 132.141C629.796 131.637 630.041 131.214 630.354 130.868C630.667 130.522 631.045 130.26 631.484 130.082C631.924 129.903 632.404 129.814 632.925 129.814C633.324 129.814 633.751 129.862 634.211 129.957C634.446 130.005 634.664 130.063 634.869 130.133L635.838 126.992C635.574 126.908 635.309 126.837 635.035 126.79C634.631 126.722 634.179 126.689 633.678 126.689H633.677ZM588.129 126.689C587.21 126.689 586.379 126.856 585.637 127.191C584.895 127.527 584.273 128.333 583.771 129.056V127.082H580.797V142.133H583.803V133.853C583.803 133.214 583.892 132.642 584.07 132.141C584.248 131.637 584.493 131.214 584.807 130.868C585.122 130.522 585.497 130.26 585.937 130.082C586.374 129.903 586.856 129.814 587.378 129.814C587.777 129.814 588.205 129.862 588.665 129.957C588.899 130.005 589.118 130.063 589.323 130.133L590.292 126.992C590.029 126.908 589.762 126.837 589.488 126.79C589.086 126.722 588.633 126.689 588.131 126.689H588.129ZM558.549 139.132C558.021 139.331 557.501 139.43 556.989 139.43C556.654 139.43 556.343 139.377 556.056 139.272C555.768 139.169 555.518 139.004 555.303 138.778C555.088 138.553 554.919 138.263 554.793 137.906C554.666 137.551 554.604 137.119 554.604 136.618V130.066H559.867V127.081H554.604V122.525H551.313V127.081H548.319V130.066H551.313V136.68C551.313 138.681 551.785 140.154 552.73 141.103C553.677 142.051 555.002 142.525 556.705 142.525C557.657 142.525 558.51 142.378 559.268 142.085C559.769 141.891 560.233 141.669 560.668 141.424L559.548 138.675C559.231 138.845 558.898 138.998 558.548 139.131L558.549 139.132ZM618.582 136.523C618.362 137.111 618.054 137.619 617.657 138.048C617.26 138.477 616.784 138.814 616.23 139.06C615.677 139.307 615.06 139.43 614.38 139.43C613.67 139.43 613.035 139.302 612.476 139.045C611.916 138.789 611.443 138.443 611.057 138.008C610.67 137.574 610.372 137.063 610.164 136.477C609.954 135.89 609.851 135.268 609.851 134.607C609.851 133.948 609.956 133.325 610.164 132.738C610.374 132.152 610.671 131.641 611.057 131.206C611.443 130.772 611.916 130.426 612.476 130.169C613.035 129.912 613.67 129.784 614.38 129.784C615.06 129.784 615.678 129.907 616.23 130.154C616.784 130.399 617.26 130.737 617.657 131.167C618.054 131.597 618.362 132.104 618.582 132.691C618.801 133.277 618.911 133.915 618.911 134.607C618.911 135.3 618.801 135.939 618.582 136.525V136.523ZM618.706 128.904C618.183 128.235 617.536 127.696 616.762 127.295C615.99 126.89 615.064 126.689 613.988 126.689C612.932 126.689 611.949 126.884 611.04 127.278C610.131 127.671 609.337 128.218 608.658 128.919C607.978 129.62 607.444 130.455 607.058 131.425C606.67 132.393 606.478 133.453 606.478 134.606C606.478 135.759 606.67 136.819 607.058 137.787C607.444 138.757 607.978 139.592 608.658 140.295C609.337 140.996 610.131 141.543 611.04 141.936C611.949 142.329 612.932 142.525 613.988 142.525C615.064 142.525 615.99 142.326 616.762 141.927C617.536 141.531 618.183 140.996 618.706 140.326V142.133H621.983V127.082H618.706V128.904ZM566.012 133.319C566.096 132.776 566.243 132.274 566.452 131.819C566.662 131.364 566.931 130.972 567.259 130.641C567.589 130.311 567.98 130.057 568.435 129.879C568.891 129.701 569.41 129.611 569.995 129.611C571.039 129.611 571.892 129.936 572.55 130.586C573.209 131.236 573.626 132.147 573.804 133.319H566.012ZM575.176 128.881C574.553 128.185 573.806 127.645 572.935 127.263C572.061 126.881 571.103 126.689 570.059 126.689C568.95 126.689 567.939 126.879 567.024 127.263C566.109 127.645 565.323 128.184 564.665 128.881C564.005 129.577 563.495 130.412 563.128 131.387C562.762 132.362 562.58 133.435 562.58 134.607C562.58 135.802 562.769 136.885 563.144 137.86C563.52 138.834 564.047 139.666 564.727 140.357C565.407 141.048 566.217 141.583 567.158 141.959C568.097 142.337 569.133 142.526 570.261 142.526C571.401 142.526 572.485 142.368 573.515 142.054C574.545 141.741 575.518 141.19 576.439 140.405L574.81 138.063C574.183 138.565 573.489 138.956 572.731 139.233C571.973 139.512 571.218 139.65 570.466 139.65C569.932 139.65 569.421 139.578 568.93 139.43C568.438 139.283 567.994 139.056 567.596 138.747C567.199 138.438 566.859 138.043 566.577 137.56C566.295 137.079 566.101 136.498 565.996 135.816H577.096C577.117 135.628 577.133 135.429 577.144 135.219C577.154 135.01 577.16 134.8 577.16 134.59C577.16 133.418 576.984 132.347 576.634 131.377C576.286 130.409 575.8 129.576 575.177 128.879L575.176 128.881ZM544.499 134.584C543.578 133.867 542.298 133.389 540.658 133.148L539.106 132.911C538.76 132.859 538.435 132.799 538.133 132.73C537.831 132.662 537.569 132.57 537.35 132.456C537.132 132.341 536.955 132.193 536.824 132.016C536.694 131.838 536.63 131.618 536.63 131.355C536.63 130.82 536.878 130.388 537.374 130.058C537.87 129.729 538.568 129.565 539.466 129.565C539.937 129.565 540.4 129.605 540.854 129.691C541.309 129.775 541.739 129.879 542.147 130.003C542.554 130.129 542.926 130.268 543.261 130.421C543.595 130.572 543.877 130.718 544.108 130.852L545.518 128.292C544.734 127.789 543.82 127.4 542.775 127.121C541.73 126.844 540.617 126.705 539.435 126.705C538.473 126.705 537.612 126.818 536.848 127.043C536.086 127.268 535.435 127.588 534.897 128.001C534.358 128.416 533.945 128.92 533.657 129.517C533.369 130.116 533.227 130.785 533.227 131.529C533.227 132.744 533.657 133.726 534.519 134.475C535.382 135.224 536.65 135.714 538.321 135.943L539.889 136.149C540.788 136.273 541.446 136.476 541.866 136.753C542.284 137.03 542.492 137.383 542.492 137.814C542.492 138.379 542.204 138.827 541.629 139.156C541.054 139.486 540.204 139.651 539.074 139.651C538.457 139.651 537.907 139.61 537.42 139.525C536.935 139.441 536.489 139.33 536.088 139.188C535.685 139.047 535.324 138.885 535.005 138.702C534.687 138.519 534.391 138.322 534.121 138.114L532.6 140.579C533.143 140.987 533.714 141.318 534.308 141.57C534.905 141.82 535.489 142.017 536.064 142.157C536.639 142.3 537.183 142.393 537.695 142.439C538.206 142.487 538.656 142.511 539.042 142.511C540.118 142.511 541.083 142.391 541.935 142.15C542.788 141.908 543.503 141.571 544.083 141.135C544.665 140.7 545.107 140.182 545.416 139.58C545.726 138.978 545.878 138.316 545.878 137.593C545.878 136.305 545.42 135.302 544.5 134.584H544.499ZM526.035 136.525C525.816 137.112 525.508 137.62 525.111 138.049C524.713 138.479 524.238 138.816 523.685 139.061C523.13 139.308 522.514 139.431 521.835 139.431C521.125 139.431 520.489 139.303 519.931 139.047C519.371 138.79 518.898 138.444 518.512 138.01C518.125 137.575 517.827 137.064 517.619 136.478C517.409 135.891 517.306 135.269 517.306 134.609C517.306 133.949 517.411 133.326 517.619 132.739C517.829 132.153 518.126 131.642 518.512 131.207C518.898 130.773 519.372 130.427 519.931 130.171C520.49 129.913 521.125 129.785 521.835 129.785C522.514 129.785 523.13 129.908 523.685 130.155C524.238 130.4 524.713 130.739 525.111 131.168C525.508 131.598 525.816 132.105 526.035 132.693C526.255 133.279 526.364 133.916 526.364 134.609C526.364 135.301 526.255 135.94 526.035 136.526V136.525ZM526.161 128.905C525.638 128.236 524.99 127.698 524.216 127.296C523.442 126.892 522.518 126.69 521.442 126.69C520.386 126.69 519.404 126.886 518.494 127.279C517.585 127.672 516.79 128.219 516.112 128.92C515.432 129.621 514.899 130.456 514.512 131.426C514.125 132.395 513.932 133.455 513.932 134.607C513.932 135.76 514.125 136.82 514.512 137.789C514.899 138.758 515.432 139.594 516.112 140.296C516.79 140.997 517.585 141.544 518.494 141.937C519.404 142.33 520.386 142.526 521.442 142.526C522.518 142.526 523.444 142.327 524.216 141.929C524.99 141.532 525.638 140.997 526.161 140.328V142.134H529.438V127.083H526.161V128.905Z" fill="black"/>
<path fill-rule="evenodd" clip-rule="evenodd" d="M548.12 56.7259C548.12 38.6933 556.525 22.6403 569.613 12.2489C559.962 4.58692 547.771 0 534.504 0C503.244 0 477.902 25.3978 477.902 56.7246C477.902 88.0527 503.243 113.449 534.504 113.449C547.771 113.449 559.962 108.864 569.613 101.202C556.525 90.8115 548.12 74.7572 548.12 56.7246V56.7259Z" fill="black"/>
<path fill-rule="evenodd" clip-rule="evenodd" d="M604.711 0C591.444 0 579.253 4.58692 569.604 12.2489C582.691 22.6391 591.095 38.6933 591.095 56.7259C591.095 74.7597 582.689 90.8127 569.604 101.203C579.253 108.865 591.444 113.45 604.711 113.45C635.97 113.45 661.311 88.0539 661.311 56.7259C661.311 25.3978 635.97 0.00122122 604.711 0.00122122V0ZM665.29 89.4669V87.0586L664.51 89.1371H663.65L662.87 87.0635V89.4669H662.058V85.9949H663.221L664.082 88.2176L664.935 85.9949H666.1V89.4669H665.287H665.29ZM659.471 89.4669V86.7435H658.371V85.9949H661.381V86.7435H660.282V89.4669H659.47H659.471Z" fill="black"/>
<path d="M736.906 25.8389L723.312 57.4526H732.163L734.671 51.1221H749.253L751.748 57.4526H760.793L747.212 25.8389H736.906ZM741.936 33.1963L746.38 44.2586H737.478L741.936 33.1963Z" fill="black"/>
<path d="M761.734 57.4467V25.833L774.311 25.8797L781.626 46.2623L788.766 25.833H801.242V57.4467H793.341V34.1524L784.965 57.4467H778.035L769.636 34.1524V57.4467H761.734Z" fill="black"/>
<path d="M806.639 57.4467V25.833H832.423V32.9045H814.623V38.3121H832.007V44.9676H814.623V50.5832H832.423V57.4467H806.639Z" fill="black"/>
<path d="M836.998 25.833V57.4467H844.9V46.2155H848.227L857.701 57.4467H867.357L856.96 45.7996C861.227 45.4394 865.628 41.7764 865.628 36.0893C865.628 29.4367 860.408 25.833 854.582 25.833H836.998ZM844.9 32.9045H853.932C856.099 32.9045 857.675 34.5998 857.675 36.2323C857.675 38.3325 855.633 39.56 854.049 39.56H844.9V32.9045Z" fill="black"/>
<path d="M876.916 57.4467H868.848V25.833H876.916V57.4467Z" fill="black"/>
<path d="M896.051 57.4467H894.309C885.883 57.4467 880.768 50.8068 880.768 41.7699C880.768 32.5096 885.826 25.833 896.467 25.833H905.2V33.3205H896.148C891.828 33.3205 888.773 36.6922 888.773 41.8479C888.773 47.9702 892.266 50.5416 897.299 50.5416H899.378L896.051 57.4467Z" fill="black"/>
<path d="M913.244 25.833L899.65 57.4467H908.501L911.009 51.1162H925.591L928.086 57.4467H937.131L923.55 25.833H913.244ZM918.274 33.1905L922.718 44.2527H913.816L918.274 33.1905Z" fill="black"/>
<path d="M938.07 57.4467V25.833H948.116L960.943 45.6956V25.833H968.845V57.4467H959.124L945.972 37.0642V57.4467H938.07Z" fill="black"/>
<path d="M780.855 112.77V81.1562H806.64V88.2278H788.84V93.6354H806.224V100.291H788.84V105.906H806.64V112.77H780.855Z" fill="black"/>
<path d="M907.18 112.77V81.1562H932.964V88.2278H915.164V93.6354H932.465V100.291H915.164V105.906H932.964V112.77H907.18Z" fill="black"/>
<path d="M807.643 112.77L820.197 97.1581L807.344 81.1562H817.299L824.953 91.0485L832.634 81.1562H842.199L829.515 96.9631L842.092 112.77H832.139L824.706 103.034L817.455 112.77H807.643Z" fill="black"/>
<path d="M843.027 81.1621V112.776H851.137V102.793H859.454C866.492 102.793 871.827 99.058 871.827 91.7953C871.827 85.779 867.643 81.1621 860.481 81.1621H843.027ZM851.137 88.3116H859.896C862.17 88.3116 863.795 89.7054 863.795 91.9513C863.795 94.0612 862.178 95.5911 859.87 95.5911H851.137V88.3116Z" fill="black"/>
<path d="M875.268 81.1562V112.77H883.169V101.539H886.496L895.97 112.77H905.626L895.23 101.123C899.496 100.763 903.898 97.0996 903.898 91.4125C903.898 84.7599 898.678 81.1562 892.851 81.1562H875.268ZM883.169 88.2278H892.201C894.368 88.2278 895.944 89.923 895.944 91.5555C895.944 93.6558 893.902 94.8833 892.318 94.8833H883.169V88.2278Z" fill="black"/>
<path d="M936.64 112.77V105.906H952.454C954.793 105.906 955.807 104.642 955.807 103.255C955.807 101.926 954.797 100.582 952.454 100.582H945.308C939.096 100.582 935.637 96.7967 935.637 91.1136C935.637 86.0446 938.805 81.1562 948.035 81.1562H963.422L960.095 88.2693H946.787C944.243 88.2693 943.46 89.6045 943.46 90.8796C943.46 92.1901 944.428 93.6354 946.371 93.6354H953.857C960.782 93.6354 963.786 97.564 963.786 102.709C963.786 108.24 960.438 112.77 953.48 112.77H936.64Z" fill="black"/>
<path d="M965.652 112.77V105.906H981.465C983.805 105.906 984.818 104.642 984.818 103.255C984.818 101.926 983.808 100.582 981.465 100.582H974.319C968.108 100.582 964.648 96.7967 964.648 91.1136C964.648 86.0446 967.816 81.1562 977.047 81.1562H992.434L989.107 88.2693H975.799C973.255 88.2693 972.472 89.6045 972.472 90.8796C972.472 92.1901 973.44 93.6354 975.383 93.6354H982.869C989.793 93.6354 992.798 97.564 992.798 102.709C992.798 108.24 989.45 112.77 982.492 112.77H965.652Z" fill="black"/>
<path fill-rule="evenodd" clip-rule="evenodd" d="M1081.4 47.6308C1083.53 46.9319 1085.76 46.5824 1088 46.5824C1098.1 46.5824 1106.52 53.6086 1108.44 62.9338L1122.73 60.0829C1119.47 44.2281 1105.16 32.291 1088.02 32.291C1084.09 32.291 1080.31 32.9164 1076.78 34.0751L1081.4 47.6308Z" fill="black"/>
<path fill-rule="evenodd" clip-rule="evenodd" d="M1064.78 93.5938L1074.57 82.7787C1070.19 78.9898 1067.45 73.4719 1067.45 67.3102C1067.45 61.1485 1070.21 55.6306 1074.57 51.86L1064.78 41.0449C1057.37 47.4825 1052.68 56.8629 1052.68 67.3286C1052.68 77.7758 1057.37 87.1747 1064.78 93.5938Z" fill="black"/>
<path fill-rule="evenodd" clip-rule="evenodd" d="M1108.45 71.708C1106.52 81.0333 1098.09 88.0594 1088.01 88.0594C1085.77 88.0594 1083.53 87.71 1081.39 87.011L1076.76 100.585C1080.29 101.744 1084.08 102.369 1088.01 102.369C1105.16 102.369 1119.45 90.4505 1122.74 74.5957L1108.45 71.708Z" fill="black"/>
<path fill-rule="evenodd" clip-rule="evenodd" d="M1163.22 78.8242L1162.8 78.5667C1161.62 80.4612 1159.82 82.0062 1157.52 82.9995C1153.16 84.9123 1149.11 84.4157 1146.21 81.8591L1145.95 82.2637H1145.93L1140.98 89.7129C1142.22 90.5774 1143.54 91.2947 1144.92 91.8833C1150.4 94.164 1155.99 94.0721 1161.51 91.6442C1165.5 89.9152 1168.63 87.2482 1170.78 83.9007L1163.22 78.8242ZM1147.75 60.4496C1143.14 62.436 1140.76 66.7768 1141.26 71.8717L1160.79 63.4293C1157.43 59.4748 1153.07 58.1688 1147.75 60.4496ZM1134.79 83.1466C1134.23 82.2269 1133.74 81.2705 1133.3 80.2773C1131.03 75.0169 1130.94 69.5909 1132.84 64.3673C1134.93 58.6471 1138.92 54.2511 1144.09 52.0256C1150.59 49.2114 1157.78 49.7632 1163.99 53.4786C1167.95 55.7594 1170.74 59.2724 1172.88 64.2569C1173.15 64.9007 1173.39 65.5812 1173.61 66.1514L1134.79 83.1466ZM1187.21 41.0449V82.4477L1193.62 85.0595L1189.98 93.5938L1182.9 90.651C1181.32 89.952 1180.23 88.9036 1179.41 87.7081C1178.62 86.4941 1178.05 84.8204 1178.05 82.5764V41.0449H1187.21ZM1203.81 71.9084C1203.81 75.2928 1205.25 78.5116 1207.79 80.7371L1201.22 88.1127C1196.59 83.9927 1193.96 78.0885 1193.97 71.9084C1193.97 65.71 1196.62 59.8242 1201.26 55.7226L1207.82 63.0798C1205.27 65.3053 1203.81 68.5241 1203.81 71.9084ZM1215.49 83.6616C1221.14 83.6616 1225.85 79.6519 1226.95 74.2995L1236.61 76.286C1234.6 86.1447 1225.9 93.5755 1215.49 93.5571C1213.18 93.5571 1210.86 93.1708 1208.65 92.4351L1211.8 83.0546C1212.96 83.4409 1214.19 83.6616 1215.49 83.6616ZM1215.51 50.2782C1225.92 50.2782 1234.62 57.7274 1236.61 67.6045L1226.95 69.5725C1225.87 64.1098 1221.07 60.1737 1215.51 60.1737C1214.26 60.1737 1212.99 60.376 1211.82 60.7807L1208.71 51.4002C1210.9 50.6461 1213.19 50.2782 1215.51 50.2782Z" fill="black"/>
<path d="M1569.33 19.374H1571.36V73.3687H1569.33V19.374ZM1573.4 19.374H1575.43V73.3687H1573.4V19.374ZM1585.61 19.374H1587.64V73.3687H1585.61V19.374ZM1625.19 19.374H1627.22V73.3687H1625.19V19.374ZM1638.42 19.374H1640.46V73.3687H1638.42V19.374ZM1651.25 19.374H1653.29V73.3687H1651.25V19.374ZM1654.56 19.374H1656.6V73.3687H1654.56V19.374ZM1657.87 19.374H1659.91V73.3687H1657.87V19.374ZM1661.6 19.374H1663.63V73.3687H1661.6V19.374ZM1665.32 19.374H1667.35V73.3687H1665.32V19.374ZM1675.66 19.374H1677.7V73.3687H1675.66V19.374ZM1701.31 19.374H1703.35V73.3687H1701.31V19.374ZM1728.07 19.374H1730.1V73.3687H1728.07V19.374ZM1735.39 19.374H1737.42V73.3687H1735.39V19.374ZM1740.67 19.374H1742.71V73.3687H1740.67V19.374ZM1743.93 19.374H1745.96V73.3687H1743.93V19.374ZM1599.03 19.374H1601.07V73.3687H1599.03V19.374ZM1578.69 19.374H1582.35V73.3687H1578.69V19.374ZM1602.85 19.374H1606.51V73.3687H1602.85V19.374ZM1619.82 19.374H1623.48V73.3687H1619.82V19.374ZM1628.51 19.374H1632.17V73.3687H1628.51V19.374ZM1642.16 19.374H1645.82V73.3687H1642.16V19.374ZM1681.08 19.374H1686.77V73.3687H1681.08V19.374ZM1688.52 19.374H1693V73.3687H1688.52V19.374ZM1696.37 19.374H1700.03V73.3687H1696.37V19.374ZM1706.75 19.374H1712.85V73.3687H1706.75V19.374ZM1718.7 19.374H1724.81V73.3687H1718.7V19.374ZM1589.67 19.374H1597V73.3687H1589.67V19.374ZM1608.65 19.374H1614.35V73.3687H1608.65V19.374Z" fill="black"/>
<path d="M1571.98 121.314V90.4096H1583.58C1585.51 90.3348 1587.45 90.6535 1589.26 91.3465C1590.65 91.9399 1591.82 92.949 1592.61 94.2349C1593.39 95.4518 1593.81 96.8672 1593.82 98.3149C1593.82 99.6348 1593.45 100.928 1592.75 102.045C1591.95 103.277 1590.83 104.256 1589.5 104.869C1591.21 105.307 1592.72 106.291 1593.82 107.671C1594.83 109.018 1595.36 110.666 1595.32 112.351C1595.33 113.749 1595.02 115.131 1594.41 116.388C1593.89 117.515 1593.11 118.502 1592.13 119.268C1591.12 119.996 1589.97 120.515 1588.75 120.796C1587.11 121.171 1585.44 121.345 1583.77 121.314H1571.98ZM1576.07 103.397H1582.75C1584.06 103.448 1585.37 103.327 1586.64 103.038C1587.57 102.802 1588.4 102.261 1588.99 101.501C1589.54 100.711 1589.82 99.7642 1589.78 98.8028C1589.8 97.8482 1589.54 96.9084 1589.04 96.0957C1588.56 95.3242 1587.82 94.7532 1586.95 94.4896C1585.41 94.1352 1583.83 93.99 1582.25 94.0579H1576.07V103.397ZM1576.07 117.67H1583.77C1584.7 117.695 1585.63 117.646 1586.55 117.523C1587.38 117.388 1588.19 117.095 1588.91 116.66C1589.57 116.232 1590.11 115.636 1590.47 114.933C1590.89 114.134 1591.1 113.244 1591.08 112.342C1591.11 111.267 1590.8 110.21 1590.2 109.32C1589.6 108.466 1588.74 107.835 1587.74 107.528C1586.27 107.13 1584.75 106.956 1583.22 107.01H1576.07V117.67ZM1601.3 106.263C1601.04 101.86 1602.52 97.5316 1605.43 94.2133C1606.8 92.775 1608.46 91.6434 1610.3 90.8933C1612.14 90.1431 1614.11 89.7914 1616.1 89.8612C1618.81 89.8239 1621.48 90.5318 1623.81 91.9077C1626.09 93.2499 1627.91 95.2345 1629.05 97.6112C1630.29 100.199 1630.9 103.038 1630.85 105.905C1630.9 108.82 1630.25 111.704 1628.96 114.316C1627.78 116.693 1625.91 118.652 1623.58 119.928C1621.28 121.195 1618.7 121.852 1616.08 121.837C1613.33 121.882 1610.63 121.153 1608.28 119.734C1606.02 118.363 1604.21 116.361 1603.07 113.974C1601.9 111.574 1601.29 108.935 1601.3 106.263ZM1605.52 106.328C1605.34 109.544 1606.43 112.702 1608.54 115.132C1609.49 116.176 1610.66 117.003 1611.96 117.558C1613.26 118.113 1614.66 118.382 1616.08 118.348C1617.5 118.384 1618.91 118.112 1620.22 117.551C1621.53 116.99 1622.7 116.153 1623.65 115.097C1625.78 112.518 1626.85 109.223 1626.63 105.883C1626.69 103.623 1626.26 101.376 1625.38 99.295C1624.6 97.5002 1623.3 95.9799 1621.65 94.93C1620 93.893 1618.08 93.3548 1616.13 93.38C1614.75 93.3591 1613.38 93.612 1612.1 94.124C1610.82 94.6361 1609.65 95.3972 1608.66 96.3634C1607.49 97.7263 1606.61 99.3112 1606.07 101.023C1605.53 102.734 1605.34 104.538 1605.52 106.324V106.328ZM1637.56 121.314V90.4096H1641.65V117.666H1656.86V121.314H1637.56ZM1663.42 121.314V90.4096H1685.77V94.0579H1667.51V103.522H1684.6V107.149H1667.51V117.666H1686.48V121.314H1663.42ZM1701.59 121.314V94.0579H1691.41V90.4096H1715.91V94.0579H1705.68V121.314H1701.59ZM1719.68 106.263C1719.42 101.859 1720.91 97.5302 1723.82 94.2133C1725.19 92.775 1726.85 91.6434 1728.68 90.8933C1730.52 90.1431 1732.5 89.7914 1734.48 89.8612C1737.2 89.8239 1739.86 90.5318 1742.2 91.9077C1744.47 93.2499 1746.29 95.2345 1747.44 97.6112C1748.67 100.199 1749.29 103.038 1749.24 105.905C1749.29 108.82 1748.64 111.704 1747.34 114.316C1746.16 116.697 1744.28 118.658 1741.95 119.933C1739.65 121.199 1737.07 121.856 1734.45 121.841C1731.7 121.886 1729 121.156 1726.64 119.734C1724.39 118.361 1722.58 116.359 1721.45 113.974C1720.27 111.574 1719.67 108.935 1719.68 106.263ZM1723.89 106.328C1723.72 109.544 1724.8 112.702 1726.92 115.132C1727.87 116.176 1729.04 117.003 1730.34 117.558C1731.64 118.113 1733.04 118.382 1734.45 118.348C1735.88 118.389 1737.3 118.119 1738.61 117.559C1739.92 116.998 1741.1 116.16 1742.05 115.101C1744.19 112.523 1745.25 109.227 1745.04 105.888C1745.08 103.624 1744.64 101.378 1743.74 99.2993C1742.96 97.5045 1741.66 95.9843 1740.01 94.9343C1738.36 93.8973 1736.45 93.3591 1734.5 93.3843C1733.12 93.3634 1731.75 93.6163 1730.46 94.1283C1729.18 94.6404 1728.01 95.4015 1727.02 96.3677C1725.86 97.7308 1724.98 99.3153 1724.44 101.026C1723.9 102.737 1723.72 104.539 1723.89 106.324L1723.89 106.328Z" fill="black"/>
<path d="M1873.73 96.6502C1871.95 96.6566 1870.19 96.3107 1868.55 95.6323C1866.91 94.9539 1865.41 93.9565 1864.16 92.6977L1850.32 78.8569C1849.83 78.389 1849.18 78.1279 1848.51 78.1279C1847.83 78.1279 1847.18 78.389 1846.69 78.8569L1832.81 92.7357C1831.56 93.9963 1830.06 94.9957 1828.42 95.6761C1826.78 96.3565 1825.01 96.7044 1823.24 96.6999H1820.53L1838.05 114.227C1840.68 116.851 1844.25 118.324 1847.96 118.324C1851.67 118.324 1855.24 116.851 1857.86 114.227L1875.43 96.6619L1873.73 96.6502Z" fill="black"/>
<path d="M1823.24 47.7386C1825.02 47.7339 1826.78 48.0818 1828.42 48.7622C1830.07 49.4426 1831.56 50.4421 1832.81 51.7028L1846.69 65.5845C1847.18 66.0655 1847.83 66.3355 1848.51 66.3355C1849.19 66.3355 1849.84 66.0655 1850.33 65.5845L1864.16 51.7553C1865.41 50.4931 1866.9 49.4924 1868.55 48.8114C1870.19 48.1304 1871.95 47.7826 1873.73 47.7883H1875.4L1857.83 30.2257C1856.53 28.9247 1854.99 27.8927 1853.29 27.1886C1851.59 26.4845 1849.77 26.1221 1847.93 26.1221C1846.09 26.1221 1844.27 26.4845 1842.57 27.1886C1840.87 27.8927 1839.33 28.9247 1838.03 30.2257L1820.53 47.7386H1823.24Z" fill="black"/>
<path d="M1889.92 62.3178L1879.31 51.7049C1879.07 51.8028 1878.81 51.8543 1878.56 51.8568H1873.73C1871.22 51.8631 1868.81 52.8605 1867.03 54.632L1853.2 68.4525C1851.96 69.6957 1850.27 70.3939 1848.51 70.3939C1846.75 70.3939 1845.06 69.6957 1843.82 68.4525L1829.93 54.5795C1828.15 52.8068 1825.75 51.8084 1823.24 51.8013H1817.31C1817.07 51.7958 1816.83 51.7474 1816.6 51.6582L1805.92 62.3178C1803.3 64.9466 1801.82 68.5087 1801.82 72.2223C1801.82 75.936 1803.3 79.4981 1805.92 82.1269L1816.58 92.7836C1816.8 92.6927 1817.04 92.6442 1817.29 92.6404H1823.24C1825.75 92.6331 1828.15 91.6347 1829.93 89.8623L1843.81 75.9835C1846.32 73.477 1850.7 73.477 1853.2 75.9835L1867.03 89.8097C1868.81 91.5813 1871.22 92.5786 1873.73 92.5849H1878.56C1878.81 92.5867 1879.07 92.6383 1879.31 92.7368L1889.92 82.1239C1891.22 80.8234 1892.26 79.2794 1892.96 77.5799C1893.66 75.8805 1894.03 74.059 1894.03 72.2194C1894.03 70.3799 1893.66 68.5584 1892.96 66.8589C1892.26 65.1595 1891.22 63.6154 1889.92 62.3149" fill="black"/>
<path d="M1916.68 111.764V55.0157C1916.68 50.0022 1918.67 45.1941 1922.22 41.649C1925.76 38.1039 1930.57 36.1123 1935.59 36.1123L1952.34 36.1357C1957.34 36.1457 1962.13 38.1394 1965.66 41.6791C1969.2 45.2188 1971.18 50.0153 1971.18 55.0157V67.0922C1971.18 72.1059 1969.19 76.9144 1965.64 80.4599C1962.1 84.0055 1957.29 85.9977 1952.27 85.9985H1928.59" stroke="black" stroke-width="1.8287" stroke-linecap="round" stroke-linejoin="round"/>
<path d="M1975.88 36.1055H1983.15C1985.2 36.1055 1987.18 36.9229 1988.63 38.378C1990.09 39.833 1990.9 41.8065 1990.9 43.8643V86.2517" stroke="black" stroke-width="1.8287" stroke-linecap="round" stroke-linejoin="round"/>
<path d="M1989.33 29.5403L1986.04 26.2422C1985.84 26.0479 1985.69 25.8173 1985.59 25.5634C1985.48 25.3095 1985.43 25.0374 1985.43 24.7625C1985.43 24.4877 1985.48 24.2156 1985.59 23.9617C1985.69 23.7078 1985.84 23.4772 1986.04 23.2829L1989.33 19.9878C1989.73 19.5948 1990.26 19.374 1990.82 19.374C1991.37 19.374 1991.91 19.5948 1992.3 19.9878L1995.59 23.2829C1995.79 23.4772 1995.94 23.7078 1996.05 23.9617C1996.15 24.2156 1996.2 24.4877 1996.2 24.7625C1996.2 25.0374 1996.15 25.3095 1996.05 25.5634C1995.94 25.8173 1995.79 26.0479 1995.59 26.2422L1992.28 29.5403C1992.09 29.7348 1991.86 29.889 1991.61 29.9943C1991.35 30.0996 1991.08 30.1537 1990.8 30.1537C1990.53 30.1537 1990.26 30.0996 1990 29.9943C1989.75 29.889 1989.52 29.7348 1989.32 29.5403" fill="black"/>
<path d="M2004.84 36.0684H2012.04C2015.75 36.0668 2019.31 37.5379 2021.93 40.1581L2038.79 57.0167C2039.31 57.5363 2039.92 57.9485 2040.6 58.2298C2041.28 58.511 2042.01 58.6558 2042.74 58.6558C2043.48 58.6558 2044.2 58.511 2044.88 58.2298C2045.56 57.9485 2046.18 57.5363 2046.7 57.0167L2063.49 40.2224C2064.79 38.9248 2066.33 37.8958 2068.03 37.194C2069.72 36.4923 2071.54 36.1316 2073.38 36.1326H2079.24" stroke="black" stroke-width="1.8287" stroke-linecap="round" stroke-linejoin="round"/>
<path d="M2004.84 85.8858H2012.04C2015.75 85.887 2019.31 84.4159 2021.93 81.796L2038.79 64.9375C2039.84 63.8895 2041.26 63.3008 2042.74 63.3008C2044.23 63.3008 2045.65 63.8895 2046.7 64.9375L2063.49 81.7347C2066.12 84.3544 2069.67 85.8255 2073.38 85.8244H2079.24" stroke="black" stroke-width="1.8287" stroke-linecap="round" stroke-linejoin="round"/>
<path d="M1931.1 106.943C1930.22 106.982 1929.35 107.114 1928.5 107.338V110.797C1929.15 111.024 1929.84 111.139 1930.53 111.135C1932.26 111.135 1933.08 110.551 1933.08 109.023C1933.08 107.586 1932.41 106.943 1931.1 106.943ZM1927.92 113.37V106.526H1928.4L1928.45 106.818C1929.33 106.583 1930.24 106.437 1931.15 106.383C1931.78 106.338 1932.41 106.52 1932.92 106.897C1933.51 107.382 1933.71 108.165 1933.71 109.018C1933.71 109.871 1933.41 110.753 1932.6 111.217C1931.97 111.529 1931.28 111.682 1930.58 111.664C1929.88 111.66 1929.18 111.552 1928.5 111.346V113.358L1927.92 113.37Z" fill="black"/>
<path d="M1938.05 106.917C1936.32 106.917 1935.55 107.461 1935.55 108.989C1935.55 110.464 1936.31 111.13 1938.05 111.13C1939.8 111.13 1940.55 110.592 1940.55 109.067C1940.55 107.592 1939.79 106.917 1938.05 106.917ZM1940.28 111.13C1939.7 111.545 1938.93 111.664 1938.05 111.664C1937.17 111.664 1936.38 111.536 1935.81 111.13C1935.18 110.683 1934.92 109.961 1934.92 109.029C1934.92 108.098 1935.18 107.373 1935.81 106.917C1936.38 106.511 1937.15 106.383 1938.05 106.383C1938.95 106.383 1939.71 106.511 1940.28 106.917C1940.93 107.373 1941.17 108.115 1941.17 109.018C1941.17 109.92 1940.92 110.683 1940.28 111.13Z" fill="black"/>
<path d="M1948.48 111.526L1946.54 107.374H1946.51L1944.6 111.526H1944.07L1942.02 106.521H1942.66L1944.38 110.722H1944.42L1946.28 106.521H1946.82L1948.73 110.722H1948.77L1950.44 106.521H1951.08L1949.01 111.526H1948.48Z" fill="black"/>
<path d="M1954.81 106.905C1953.2 106.905 1952.66 107.621 1952.56 108.658H1957.06C1957.01 107.519 1956.42 106.905 1954.81 106.905ZM1954.79 111.664C1953.83 111.664 1953.2 111.524 1952.7 111.109C1952.12 110.604 1951.92 109.87 1951.92 109.029C1951.92 108.188 1952.19 107.373 1952.86 106.888C1953.44 106.521 1954.12 106.345 1954.81 106.382C1955.51 106.34 1956.2 106.509 1956.81 106.867C1957.53 107.352 1957.67 108.205 1957.67 109.175H1952.54C1952.56 110.206 1952.9 111.118 1954.84 111.118C1955.71 111.095 1956.58 110.997 1957.43 110.826V111.351C1956.56 111.529 1955.68 111.632 1954.8 111.658" fill="black"/>
<path d="M1959.35 111.53V106.526H1959.83L1959.88 106.818C1960.94 106.549 1961.43 106.383 1962.37 106.383H1962.44V106.938H1962.3C1961.51 106.938 1961.04 107.046 1959.94 107.332V111.524L1959.35 111.53Z" fill="black"/>
<path d="M1965.84 106.905C1964.24 106.905 1963.69 107.621 1963.59 108.658H1968.09C1968.04 107.519 1967.46 106.905 1965.84 106.905ZM1965.82 111.664C1964.86 111.664 1964.24 111.524 1963.74 111.109C1963.16 110.604 1962.96 109.87 1962.96 109.029C1962.96 108.188 1963.23 107.373 1963.89 106.888C1964.48 106.522 1965.16 106.346 1965.84 106.382C1966.54 106.34 1967.24 106.509 1967.85 106.867C1968.57 107.352 1968.72 108.205 1968.72 109.175H1963.57C1963.59 110.206 1963.93 111.118 1965.87 111.118C1966.74 111.095 1967.61 110.997 1968.46 110.826V111.351C1967.6 111.529 1966.72 111.632 1965.83 111.658" fill="black"/>
<path d="M1975.11 107.257C1974.46 107.031 1973.78 106.917 1973.09 106.921C1971.36 106.921 1970.54 107.506 1970.54 109.034C1970.54 110.48 1971.21 111.113 1972.52 111.113C1973.39 111.073 1974.26 110.943 1975.11 110.725V107.257ZM1975.22 111.528L1975.17 111.236C1974.29 111.474 1973.38 111.621 1972.47 111.674C1971.83 111.722 1971.2 111.538 1970.69 111.157C1970.11 110.672 1969.91 109.889 1969.91 109.039C1969.91 108.145 1970.2 107.304 1971.02 106.848C1971.65 106.53 1972.34 106.373 1973.04 106.393C1973.74 106.402 1974.44 106.509 1975.11 106.708V104.415H1975.7V111.528H1975.22Z" fill="black"/>
<path d="M1984.27 106.942C1983.39 106.98 1982.52 107.113 1981.67 107.336V110.786C1982.32 111.02 1983 111.138 1983.69 111.134C1985.43 111.134 1986.25 110.55 1986.25 109.022C1986.25 107.585 1985.58 106.942 1984.27 106.942ZM1985.76 111.222C1985.14 111.533 1984.45 111.686 1983.75 111.669C1982.99 111.664 1982.23 111.537 1981.51 111.292L1981.48 111.528H1981.09V104.415H1981.67V106.802C1982.54 106.58 1983.42 106.441 1984.32 106.387C1984.95 106.342 1985.58 106.525 1986.09 106.901C1986.67 107.386 1986.87 108.169 1986.87 109.022C1986.87 109.875 1986.58 110.757 1985.76 111.222Z" fill="black"/>
<path d="M1987.64 113.441V112.898C1987.93 112.927 1988.19 112.947 1988.38 112.947C1989.1 112.947 1989.55 112.737 1989.95 111.916L1990.13 111.519L1987.51 106.515H1988.18L1990.42 110.835H1990.46L1992.59 106.515H1993.26L1990.44 112.135C1989.93 113.155 1989.37 113.491 1988.35 113.491C1988.11 113.489 1987.87 113.473 1987.63 113.441" fill="black"/>
<path d="M2001.34 108.674H1999.4V110.427H2001.34C2002.68 110.427 2003.18 110.278 2003.18 109.551C2003.18 108.768 2002.49 108.674 2001.33 108.674M2000.98 105.846H1999.39V107.628H2000.99C2002.31 107.628 2002.83 107.471 2002.83 106.729C2002.83 105.934 2002.17 105.852 2000.98 105.852M2003.99 111.075C2003.28 111.531 2002.41 111.549 2000.84 111.549H1997.88V104.742H2000.77C2002.13 104.742 2002.96 104.76 2003.65 105.177C2003.88 105.315 2004.07 105.513 2004.19 105.751C2004.32 105.989 2004.37 106.257 2004.35 106.524C2004.35 107.237 2004.06 107.713 2003.28 108.032V108.069C2004.15 108.268 2004.71 108.715 2004.71 109.676C2004.74 109.951 2004.68 110.226 2004.55 110.47C2004.42 110.714 2004.23 110.917 2003.99 111.055" fill="black"/>
<path d="M2010.64 109.424C2010.06 109.374 2009.47 109.345 2008.84 109.345C2007.82 109.345 2007.46 109.552 2007.46 110.02C2007.46 110.487 2007.75 110.692 2008.54 110.692C2009.25 110.668 2009.95 110.57 2010.64 110.4V109.424ZM2010.93 111.524L2010.9 111.232C2010.01 111.482 2009.1 111.629 2008.18 111.67C2007.65 111.706 2007.12 111.578 2006.66 111.302C2006.47 111.138 2006.32 110.927 2006.22 110.69C2006.13 110.453 2006.09 110.195 2006.12 109.941C2006.15 109.687 2006.24 109.444 2006.39 109.234C2006.53 109.024 2006.73 108.854 2006.96 108.737C2007.48 108.489 2008.19 108.469 2008.83 108.469C2009.35 108.469 2010.06 108.498 2010.64 108.539V108.448C2010.64 107.665 2010.13 107.408 2008.72 107.408C2008.18 107.408 2007.51 107.437 2006.88 107.496V106.485C2007.58 106.427 2008.38 106.389 2009.03 106.389C2009.91 106.389 2010.8 106.456 2011.37 106.853C2011.93 107.25 2012.05 107.826 2012.05 108.568V111.53L2010.93 111.524Z" fill="black"/>
<path d="M2018.57 111.525V108.765C2018.57 107.853 2018.11 107.526 2017.27 107.526C2016.58 107.557 2015.9 107.662 2015.23 107.842V111.528H2013.83V106.521H2014.97L2015.02 106.84C2015.89 106.583 2016.79 106.43 2017.7 106.384C2018.31 106.335 2018.92 106.518 2019.41 106.898C2019.81 107.254 2019.95 107.751 2019.95 108.464V111.525H2018.57Z" fill="black"/>
<path d="M2023.9 111.664C2023.26 111.664 2022.55 111.574 2022.04 111.139C2021.43 110.642 2021.25 109.862 2021.25 109.018C2021.25 108.226 2021.51 107.361 2022.27 106.877C2022.89 106.47 2023.66 106.383 2024.47 106.383C2025.05 106.383 2025.61 106.421 2026.22 106.479V107.551C2025.71 107.502 2025.11 107.464 2024.63 107.464C2023.3 107.464 2022.67 107.878 2022.67 109.029C2022.67 110.107 2023.14 110.575 2024.23 110.575C2024.93 110.552 2025.64 110.466 2026.33 110.318V111.346C2025.53 111.532 2024.71 111.639 2023.89 111.664" fill="black"/>
<path d="M2030.48 107.432C2029.15 107.432 2028.56 107.849 2028.56 108.989C2028.56 110.128 2029.15 110.613 2030.48 110.613C2031.81 110.613 2032.37 110.207 2032.37 109.067C2032.37 107.928 2031.81 107.432 2030.48 107.432ZM2032.88 111.139C2032.26 111.553 2031.46 111.664 2030.48 111.664C2029.5 111.664 2028.68 111.545 2028.07 111.139C2027.38 110.683 2027.13 109.929 2027.13 109.029C2027.13 108.13 2027.38 107.361 2028.07 106.906C2028.68 106.5 2029.48 106.383 2030.48 106.383C2031.48 106.383 2032.26 106.5 2032.88 106.906C2033.57 107.361 2033.81 108.127 2033.81 109.018C2033.81 109.909 2033.56 110.683 2032.88 111.139Z" fill="black"/>
<path d="M2041.85 111.67C2041.01 111.67 2040.1 111.53 2039.41 110.966C2038.6 110.291 2038.35 109.251 2038.35 108.132C2038.35 107.13 2038.67 105.941 2039.73 105.249C2040.55 104.715 2041.57 104.604 2042.6 104.604C2043.36 104.604 2044.13 104.653 2044.97 104.723V105.941C2044.25 105.883 2043.36 105.833 2042.66 105.833C2040.73 105.833 2039.91 106.567 2039.91 108.132C2039.91 109.698 2040.67 110.44 2042.1 110.44C2043.12 110.405 2044.13 110.269 2045.12 110.034V111.244C2044.05 111.492 2042.95 111.635 2041.85 111.67Z" fill="black"/>
<path d="M2049.24 107.276C2048.08 107.276 2047.64 107.693 2047.55 108.444H2050.92C2050.88 107.632 2050.4 107.276 2049.24 107.276ZM2049.03 111.658C2048.21 111.658 2047.47 111.558 2046.91 111.103C2046.36 110.647 2046.11 109.864 2046.11 109.011C2046.11 108.248 2046.36 107.395 2047.05 106.899C2047.67 106.464 2048.45 106.376 2049.24 106.376C2049.96 106.376 2050.8 106.455 2051.41 106.881C2052.21 107.445 2052.29 108.319 2052.29 109.347H2047.54C2047.57 110.112 2047.97 110.606 2049.38 110.606C2050.28 110.586 2051.17 110.501 2052.05 110.349V111.33C2051.05 111.519 2050.05 111.629 2049.03 111.658Z" fill="black"/>
<path d="M2058.5 111.525V108.765C2058.5 107.853 2058.04 107.526 2057.21 107.526C2056.52 107.557 2055.83 107.662 2055.16 107.842V111.528H2053.77V106.521H2054.9L2054.95 106.84C2055.83 106.583 2056.72 106.43 2057.63 106.384C2058.25 106.335 2058.86 106.518 2059.35 106.898C2059.74 107.254 2059.89 107.751 2059.89 108.464V111.525H2058.5Z" fill="black"/>
<path d="M2063.88 111.668C2063.21 111.668 2062.6 111.478 2062.26 110.953C2061.98 110.498 2061.86 109.97 2061.89 109.439V107.564H2060.88V106.524H2061.89L2062.04 105.008H2063.27V106.524H2065.25V107.564H2063.27V109.171C2063.25 109.494 2063.3 109.818 2063.41 110.123C2063.56 110.459 2063.89 110.587 2064.33 110.587C2064.66 110.581 2064.99 110.548 2065.32 110.488V111.49C2064.85 111.593 2064.36 111.653 2063.88 111.668" fill="black"/>
<path d="M2066.59 111.527V106.523H2067.73L2067.78 106.841C2068.58 106.57 2069.42 106.416 2070.26 106.385C2070.32 106.382 2070.38 106.382 2070.44 106.385V107.598C2070.28 107.598 2070.09 107.598 2069.95 107.598C2069.29 107.6 2068.63 107.687 2067.99 107.855V111.55L2066.59 111.527Z" fill="black"/>
<path d="M2075.54 109.424C2074.95 109.374 2074.37 109.345 2073.73 109.345C2072.71 109.345 2072.35 109.552 2072.35 110.02C2072.35 110.487 2072.65 110.692 2073.43 110.692C2074.14 110.668 2074.85 110.57 2075.54 110.4V109.424ZM2075.83 111.524L2075.79 111.232C2074.9 111.482 2073.99 111.629 2073.07 111.67C2072.54 111.706 2072.01 111.578 2071.55 111.302C2071.37 111.161 2071.22 110.977 2071.13 110.766C2071.03 110.556 2070.99 110.324 2071 110.093C2070.98 109.808 2071.06 109.526 2071.21 109.284C2071.36 109.041 2071.58 108.851 2071.84 108.737C2072.37 108.489 2073.07 108.469 2073.72 108.469C2074.24 108.469 2074.94 108.498 2075.53 108.539V108.448C2075.53 107.665 2075.01 107.408 2073.61 107.408C2073.06 107.408 2072.4 107.437 2071.76 107.496V106.485C2072.47 106.427 2073.26 106.389 2073.91 106.389C2074.79 106.389 2075.69 106.456 2076.25 106.853C2076.81 107.25 2076.93 107.826 2076.93 108.568V111.53L2075.83 111.524Z" fill="black"/>
<path d="M2078.73 104.415H2080.13V111.528H2078.73V104.415Z" fill="black"/>
</svg>
